<?xml version="1.0" encoding="UTF-8"?>
<svg version="1.1" xmlns="http://www.w3.org/2000/svg" width="980" height="980">
<path d="M0 0 C0.80252197 0.00093658 1.60504395 0.00187317 2.43188477 0.00283813 C49.88859129 0.12307917 93.35262023 16.63583571 130.4375 46.1875 C130.9747168 46.61353516 131.51193359 47.03957031 132.06542969 47.47851562 C137.70036228 51.97146248 143.10367712 56.47073939 147.64453125 62.10546875 C149.27126572 63.99446542 150.96293012 65.69828931 152.74609375 67.4375 C156.39486392 71.05939511 159.57987844 74.90962632 162.6875 79 C163.24397217 79.73138184 163.80044434 80.46276367 164.3737793 81.21630859 C170.3313461 89.18515809 175.48170367 97.56967719 180.4375 106.1875 C180.99195801 107.13375244 180.99195801 107.13375244 181.55761719 108.09912109 C202.76538699 144.50416372 210.87673634 191.76447948 203.4375 233.1875 C203.24414062 234.31381836 203.24414062 234.31381836 203.046875 235.46289062 C196.09786915 275.45184558 178.15759543 312.3779249 154.75 345.32373047 C152.00002994 349.22872888 149.31665477 353.17969781 146.625 357.125 C145.6959082 358.48334961 145.6959082 358.48334961 144.74804688 359.86914062 C140.81352549 365.64003247 136.93659451 371.44516411 133.09375 377.27734375 C132.17820365 378.66353404 131.26259505 380.04968321 130.34692383 381.43579102 C128.54474388 384.16436013 126.75198139 386.89883251 124.96362305 389.63647461 C124.13624233 390.89068487 123.30853986 392.14468296 122.48046875 393.3984375 C122.10092041 393.98483505 121.72137207 394.5712326 121.33032227 395.17539978 C120.41793402 396.54868854 119.43420066 397.87412187 118.4375 399.1875 C117.7775 399.1875 117.1175 399.1875 116.4375 399.1875 C116.17340332 399.90736084 115.90930664 400.62722168 115.63720703 401.36889648 C114.41023693 404.25155211 112.9639993 406.6706347 111.2421875 409.28515625 C110.60796875 410.25259766 109.97375 411.22003906 109.3203125 412.21679688 C108.65773438 413.21775391 107.99515625 414.21871094 107.3125 415.25 C106.673125 416.22388672 106.03375 417.19777344 105.375 418.20117188 C102.75417567 422.18766671 100.1251536 426.16776458 97.45776367 430.12329102 C92.41008131 437.61690481 87.65867975 445.26210775 83 453 C82.24762007 454.24650551 81.49509593 455.49292399 80.74243164 456.73925781 C79.63390502 458.57532693 78.52575803 460.41161834 77.41899109 462.24874878 C75.49962336 465.43408483 73.56880203 468.61166909 71.6171875 471.77734375 C66.79824846 479.61880664 62.58330602 487.63634008 58.56347656 495.90478516 C57.3263841 498.4127675 56.05289733 500.90009267 54.7734375 503.38671875 C48.60592514 515.41898441 43.18205879 527.52891102 38.4375 540.1875 C38.10121582 541.074375 37.76493164 541.96125 37.41845703 542.875 C31.7185062 557.9534984 26.42606802 573.19443177 22.875 588.9375 C20.94112371 596.90911795 17.16403211 602.52011037 10.4375 607.1875 C4.54670252 609.87677711 -0.96891382 609.97483866 -7.0625 608.125 C-8.25193861 607.52213385 -9.41815564 606.87210776 -10.5625 606.1875 C-11.23539063 605.79304687 -11.90828125 605.39859375 -12.6015625 604.9921875 C-19.37926544 600.14371836 -20.89997216 593.364705 -22.90869141 585.671875 C-24.13546718 581.01031028 -25.47543644 576.38092451 -26.8125 571.75 C-27.10463379 570.73736084 -27.39676758 569.72472168 -27.69775391 568.68139648 C-34.46256805 545.60706641 -43.55928501 523.75995766 -54.45898438 502.37109375 C-55.68106926 499.95287976 -56.88096742 497.5243977 -58.078125 495.09375 C-58.7280542 493.77866455 -58.7280542 493.77866455 -59.39111328 492.43701172 C-60.22572179 490.74736173 -61.05764408 489.05638084 -61.88623047 487.36376953 C-64.82104205 481.44694735 -68.11731328 475.81941866 -71.5625 470.1875 C-72.49436634 468.62760164 -73.42408682 467.06641918 -74.3515625 465.50390625 C-89.00061704 440.9186366 -104.73874314 417.12535109 -120.94482422 393.54345703 C-123.6984491 389.53312197 -126.44217679 385.51602031 -129.1875 381.5 C-132.27568025 376.98352486 -135.36603024 372.46865761 -138.47265625 367.96484375 C-143.75127884 360.31208183 -148.97681606 352.62921517 -154.10546875 344.875 C-155.70596823 342.45934323 -157.33308043 340.06597624 -158.98828125 337.6875 C-192.32789459 289.4487676 -212.72436735 230.07287107 -202.39916992 171.17944336 C-195.4709651 134.90206551 -181.30261586 102.65889116 -157.5625 74.1875 C-156.90725342 73.38892578 -156.90725342 73.38892578 -156.23876953 72.57421875 C-123.7440339 33.04063033 -74.65877956 6.0829224 -23.609375 0.609375 C-15.75435452 -0.05117476 -7.87693526 -0.01183847 0 0 Z " fill="#EC2026" transform="translate(489.5625,141.8125)"/>
<path d="M0 0 C0.61464111 0.43836182 1.22928223 0.87672363 1.86254883 1.32836914 C6.16321937 4.51911352 9.99385529 8.07901152 13.0625 12.5 C13.0625 13.16 13.0625 13.82 13.0625 14.5 C13.7225 14.5 14.3825 14.5 15.0625 14.5 C15.3925 15.82 15.7225 17.14 16.0625 18.5 C16.7225 18.5 17.3825 18.5 18.0625 18.5 C22.37952261 23.75678263 24.733945 30.19700373 27.0625 36.5 C27.41441406 37.38945312 27.76632812 38.27890625 28.12890625 39.1953125 C28.47824219 40.10023438 28.82757812 41.00515625 29.1875 41.9375 C29.49945312 42.74058594 29.81140625 43.54367187 30.1328125 44.37109375 C35.52659843 62.52412961 34.80826541 81.91142791 28.0625 99.5 C27.55274488 100.91122713 27.04363587 102.3226878 26.53515625 103.734375 C22.55185443 114.41549717 22.55185443 114.41549717 18.0625 118.5 C16.6921945 120.47485205 15.35577628 122.47386717 14.0625 124.5 C13.4025 125.49 12.7425 126.48 12.0625 127.5 C11.4025 127.5 10.7425 127.5 10.0625 127.5 C9.7325 128.49 9.4025 129.48 9.0625 130.5 C8.4025 130.5 7.7425 130.5 7.0625 130.5 C6.82917969 131.0775 6.59585938 131.655 6.35546875 132.25 C3.16337138 137.80482805 -3.47178147 141.82415741 -9 144.875 C-12.01338901 146.17996519 -12.01338901 146.17996519 -12.9375 148.5 C-14.84838867 149.33789062 -14.84838867 149.33789062 -17.35546875 150.15625 C-18.27312012 150.45587646 -19.19077148 150.75550293 -20.13623047 151.06420898 C-21.12252441 151.37302002 -22.10881836 151.68183105 -23.125 152 C-24.63151123 152.47191772 -24.63151123 152.47191772 -26.16845703 152.95336914 C-48.64514313 159.79967454 -72.60848538 159.96334994 -93.8125 149.015625 C-96.54479284 147.54774427 -99.2499526 146.04812638 -101.9375 144.5 C-102.86949219 143.98566406 -103.80148437 143.47132813 -104.76171875 142.94140625 C-105.47972656 142.46574219 -106.19773437 141.99007812 -106.9375 141.5 C-106.9375 140.84 -106.9375 140.18 -106.9375 139.5 C-107.72125 139.2525 -108.505 139.005 -109.3125 138.75 C-112.37691457 137.29075497 -112.55475761 136.44985044 -113.9375 133.5 C-114.54980469 133.2009375 -115.16210938 132.901875 -115.79296875 132.59375 C-118.20053146 131.36584916 -119.45852086 130.06080342 -121.1875 128 C-121.70828125 127.3915625 -122.2290625 126.783125 -122.765625 126.15625 C-123.9375 124.5 -123.9375 124.5 -123.9375 122.5 C-124.5975 122.5 -125.2575 122.5 -125.9375 122.5 C-127.3046875 120.5234375 -127.3046875 120.5234375 -128.8125 117.875 C-130.44126961 115.03531266 -132.06418966 112.32263447 -133.96875 109.65625 C-136.21439831 106.05608366 -137.39082976 102.67188733 -138.5625 98.625 C-138.76617187 97.95597656 -138.96984375 97.28695312 -139.1796875 96.59765625 C-139.78882203 94.57111254 -140.36408343 92.53689789 -140.9375 90.5 C-141.31003906 89.2521875 -141.68257813 88.004375 -142.06640625 86.71875 C-143.34185104 81.48533674 -143.27871878 76.23527555 -143.25 70.875 C-143.24581055 69.81120117 -143.24162109 68.74740234 -143.23730469 67.65136719 C-143.12134233 59.55127317 -142.27976761 52.28753932 -139.9375 44.5 C-139.63585937 43.43523437 -139.33421875 42.37046875 -139.0234375 41.2734375 C-137.36647159 35.84451668 -135.43233115 31.14262194 -132.23046875 26.453125 C-130.29392879 23.52783806 -128.74390389 20.40648816 -127.1484375 17.28515625 C-125.9375 15.5 -125.9375 15.5 -122.9375 14.5 C-122.26488765 13.16965611 -121.59953305 11.8356401 -120.9375 10.5 C-119.36380862 8.76455289 -117.73261728 7.08036017 -116.0625 5.4375 C-115.19882812 4.58027344 -114.33515625 3.72304688 -113.4453125 2.83984375 C-107.72214107 -2.5 -107.72214107 -2.5 -104.9375 -2.5 C-104.9375 -3.16 -104.9375 -3.82 -104.9375 -4.5 C-103.0645787 -5.43646065 -101.19060921 -6.37086282 -99.3125 -7.296875 C-97.79511009 -8.06555278 -96.29270267 -8.86506908 -94.8125 -9.703125 C-64.1767426 -26.51024191 -27.35151486 -19.69403607 0 0 Z " fill="#541314" transform="translate(544.9375,277.5)"/>
<path d="M0 0 C0 0.99 0 1.98 0 3 C-0.91942383 3.21765015 -0.91942383 3.21765015 -1.85742188 3.43969727 C-14.81219189 6.54879362 -27.1058335 9.93448721 -39 16 C-39.91749023 16.45995361 -39.91749023 16.45995361 -40.85351562 16.92919922 C-53.53356026 23.3863814 -63.84689487 31.15058482 -69.8125 44.34375 C-72.54985096 52.77190954 -72.22534142 61.57051305 -68.4453125 69.6328125 C-54.97482405 91.69528818 -27.72255712 100.55212335 -3.99267578 106.32275391 C9.42409243 109.35898453 23.23446014 111.66896497 37 112 C37.8878418 112.02578125 38.77568359 112.0515625 39.69042969 112.078125 C80.11585011 113.12372268 128.44052987 107.92040489 159.24609375 78.8828125 C165.97003611 71.94913249 169.10349319 64.60235338 169.5 54.9375 C169.10268596 45.01746548 164.85423461 37.05290808 158 30 C142.84334002 16.66944363 123.59785427 8.42601875 103.96313477 4.37988281 C102.03515625 3.95703125 102.03515625 3.95703125 99 3 C98.67 2.01 98.34 1.02 98 0 C126.30916197 0.72927584 158.61013555 12.32606755 182 28 C183.41732422 28.93972656 183.41732422 28.93972656 184.86328125 29.8984375 C197.74736722 38.82800203 209.72791983 50.48327356 214 66 C216.37647237 80.24148773 213.19889242 91.06346442 204.9921875 102.89453125 C180.57892139 134.17676292 136.29785578 145.85710387 99 152 C98.05479492 152.16371094 97.10958984 152.32742188 96.13574219 152.49609375 C64.90940998 157.70945863 30.17578498 157.31819357 -1 152 C-2.700354 151.71793701 -2.700354 151.71793701 -4.43505859 151.43017578 C-28.88294614 147.23481815 -54.44081121 140.64602593 -76 128 C-76.66628418 127.61875977 -77.33256836 127.23751953 -78.01904297 126.84472656 C-94.97031454 117.07165896 -110.23353154 104.49615528 -116 85 C-118.6648009 73.25312255 -116.02369567 62.50038607 -109.75 52.25 C-108.53119906 50.47812973 -107.28185804 48.7268005 -106 47 C-105.43796875 46.24203125 -104.8759375 45.4840625 -104.296875 44.703125 C-82.66802621 18.18427562 -33.4716272 -0.85309994 0 0 Z " fill="#414A56" transform="translate(441,683)"/>
<path d="M0 0 C0.33 0 0.66 0 1 0 C1.02696009 2.7708983 1.04681952 5.5415345 1.0625 8.3125 C1.07087891 9.09818359 1.07925781 9.88386719 1.08789062 10.69335938 C1.09111328 11.45068359 1.09433594 12.20800781 1.09765625 12.98828125 C1.10289307 13.68477783 1.10812988 14.38127441 1.11352539 15.09887695 C1 17 1 17 0 20 C-1.00951578 28.66303569 -1.16075355 37.35076546 -1.125 46.0625 C-1.12306641 47.22048096 -1.12113281 48.37846191 -1.11914062 49.5715332 C-1.06875301 59.73513602 -0.64757806 69.85846499 0 80 C0.66 80 1.32 80 2 80 C4.47045803 83.81615468 4.43831912 87.84744248 4.625 92.25 C4.68300781 93.36761719 4.68300781 93.36761719 4.7421875 94.5078125 C4.83605108 96.3381524 4.91909718 98.16904143 5 100 C5.66 100 6.32 100 7 100 C7.03738281 100.75925781 7.07476562 101.51851563 7.11328125 102.30078125 C7.21189453 103.79158203 7.21189453 103.79158203 7.3125 105.3125 C7.39951172 106.79169922 7.39951172 106.79169922 7.48828125 108.30078125 C8.07904181 111.41693045 8.79103628 111.8710712 11 114 C11.92508484 116.17957676 12.77303456 118.3927184 13.5625 120.625 C14.79096957 125.13976067 14.79096957 125.13976067 18 128 C18 129.98 18 131.96 18 134 C18.66 134 19.32 134 20 134 C20.268125 135.11375 20.53625 136.2275 20.8125 137.375 C21.65809019 141.21840951 21.65809019 141.21840951 25 143 C25.6875 145.125 25.6875 145.125 26 147 C26.66 146.67 27.32 146.34 28 146 C28.25 152.625 28.25 152.625 26 156 C11.54764136 128.29136536 -0.05540518 100.20540343 -4 69 C-4.1403064 67.89023804 -4.1403064 67.89023804 -4.28344727 66.75805664 C-6.79683909 44.56736318 -5.59142529 21.63841183 0 0 Z " fill="#DC5D65" transform="translate(290,300)"/>
<path d="M0 0 C0 0.99 0 1.98 0 3 C-0.61294922 3.1451001 -1.22589844 3.2902002 -1.85742188 3.43969727 C-18.78456639 7.50214865 -33.93363374 12.25643681 -48.546875 21.91015625 C-51 23 -51 23 -53.328125 22.18359375 C-54.15570313 21.59771484 -54.15570313 21.59771484 -55 21 C-53.74458443 18.48916886 -52.49936512 18.12874554 -50 17 C-50 16.01 -50 15.02 -50 14 C-48.35 14 -46.7 14 -45 14 C-45 13.34 -45 12.68 -45 12 C-46.98 12.66 -48.96 13.32 -51 14 C-51 14.66 -51 15.32 -51 16 C-51.66 16.66 -52.32 17.32 -53 18 C-53.99 17.67 -54.98 17.34 -56 17 C-56.66 17 -57.32 17 -58 17 C-59.33783393 16.68521554 -60.67203709 16.35412344 -62 16 C-19.5104638 -1.02686652 -19.5104638 -1.02686652 0 0 Z " fill="#6A737B" transform="translate(441,683)"/>
<path d="M0 0 C0.33 0 0.66 0 1 0 C1.65111597 3.47819905 2.29490749 6.95771702 2.9375 10.4375 C3.11990234 11.41138672 3.30230469 12.38527344 3.49023438 13.38867188 C8.21356603 39.06642034 6.47348516 64.60302884 1 90 C-0.01767617 86.7550372 0.04547443 84.24301836 0.4296875 80.87890625 C1.21143924 72.56493877 1.15042433 64.28006275 1.125 55.9375 C1.12411377 55.10048553 1.12322754 54.26347107 1.12231445 53.40109253 C1.10037974 35.5903153 0.62985964 17.79856043 0 0 Z " fill="#DD2C3B" transform="translate(689,300)"/>
<path d="M0 0 C16.60971436 0.42788491 33.23390153 6.14412432 49 11 C48.01 11.33 47.02 11.66 46 12 C46 12.66 46 13.32 46 14 C46.66 14 47.32 14 48 14 C48 15.98 48 17.96 48 20 C44.40429566 18.64469605 41.01110141 17.01073797 37.58105469 15.28369141 C27.73144321 10.39124009 17.71284729 7.40031257 7.10742188 4.59863281 C4.65880389 3.90308007 2.3276798 3.02918074 0 2 C0 1.34 0 0.68 0 0 Z " fill="#5F626A" transform="translate(539,683)"/>
<path d="M0 0 C0.66 0 1.32 0 2 0 C2 1.65 2 3.3 2 5 C2.66 5 3.32 5 4 5 C7.35637526 10.28665116 8.45700306 13.82875653 7.1640625 20.01953125 C6.76666758 22.32329148 6.76666758 22.32329148 9 25 C9 26.32 9 27.64 9 29 C10.32 29.66 11.64 30.32 13 31 C13 31.66 13 32.32 13 33 C18.28 33.33 23.56 33.66 29 34 C25.25462498 36.49691668 22.3321002 36.49738928 18 36 C15.22664541 35.15808879 13.41791823 34.4465275 11 33 C10.32710938 32.60554687 9.65421875 32.21109375 8.9609375 31.8046875 C1.67089198 26.58971111 -0.264071 18.4147402 -2 10 C-2.40594117 7.33490797 -2.71531185 4.68206201 -3 2 C-2.01 2.495 -2.01 2.495 -1 3 C-0.67 2.01 -0.34 1.02 0 0 Z " fill="#F11D28" transform="translate(468,715)"/>
<path d="M0 0 C0.99 0 1.98 0 3 0 C5.19261408 4.28989712 6.87057581 8.32095691 8 13 C8.66 13 9.32 13 10 13 C9.34 11.35 8.68 9.7 8 8 C8.66 8 9.32 8 10 8 C12 14.75 12 14.75 12 17 C13.65 17 15.3 17 17 17 C17.12375 18.03125 17.2475 19.0625 17.375 20.125 C18.14946356 24.92667409 19.41726651 28.85694584 21.625 33.1875 C23 36 23 36 23 39 C23.639375 39.20625 24.27875 39.4125 24.9375 39.625 C27 41 27 41 27.75 44.125 C27.87375 45.548125 27.87375 45.548125 28 47 C29.485 47.495 29.485 47.495 31 48 C31 50.31 31 52.62 31 55 C31.66 55.33 32.32 55.66 33 56 C32.505 56.99 32.505 56.99 32 58 C32.66 58 33.32 58 34 58 C34 59.65 34 61.3 34 63 C31.24424071 59.63091623 29.38592701 55.95621393 27.5 52.0625 C20.11905428 37.11313392 12.48645268 22.40522329 3.70800781 8.21972656 C2.98049316 7.03781738 2.98049316 7.03781738 2.23828125 5.83203125 C1.589198 4.79139526 1.589198 4.79139526 0.92700195 3.72973633 C0 2 0 2 0 0 Z " fill="#DF6567" transform="translate(409,595)"/>
<path d="M0 0 C27.62740513 -0.29043851 53.55763763 -0.21217786 80 9 C80 9.33 80 9.66 80 10 C75.32818307 10.19465904 71.63270453 9.80561162 67.1875 8.33984375 C64.81587567 7.8567994 64.81587567 7.8567994 61.7109375 8.5234375 C57.6214664 9.04861168 54.63361754 8.58922527 50.625 7.6875 C49.40039062 7.42324219 48.17578125 7.15898437 46.9140625 6.88671875 C45.47160156 6.44779297 45.47160156 6.44779297 44 6 C43.505 5.01 43.505 5.01 43 4 C29.09292886 0.86167864 14.17008555 1.38255499 0 1 C0 0.67 0 0.34 0 0 Z " fill="#DC2A33" transform="translate(472,142)"/>
<path d="M0 0 C0.66 0 1.32 0 2 0 C2 0.66 2 1.32 2 2 C2.639375 2.103125 3.27875 2.20625 3.9375 2.3125 C4.618125 2.539375 5.29875 2.76625 6 3 C6.33 3.99 6.66 4.98 7 6 C7.66 6.33 8.32 6.66 9 7 C8.67 8.32 8.34 9.64 8 11 C8.66 11 9.32 11 10 11 C10 11.66 10 12.32 10 13 C10.66 13 11.32 13 12 13 C12 13.99 12 14.98 12 16 C14.475 16.99 14.475 16.99 17 18 C17.33 20.31 17.66 22.62 18 25 C18.99 25.33 19.98 25.66 21 26 C21.639375 26.969375 22.27875 27.93875 22.9375 28.9375 C25.0432733 32.0642543 25.81667949 32.45968363 29 34 C31.88473323 37.70894272 32.32405231 40.35525026 32 45 C32.99 45.33 33.98 45.66 35 46 C35 47.65 35 49.3 35 51 C32.02935914 48.19836716 29.7758554 45.36351783 27.5625 41.9375 C23.98379513 36.472811 20.32465998 31.07102794 16.625 25.6875 C12.45241039 19.60120741 8.29460967 13.50571839 4.1875 7.375 C3.76098145 6.74166748 3.33446289 6.10833496 2.89501953 5.45581055 C0 1.11813663 0 1.11813663 0 0 Z " fill="#DF7478" transform="translate(344,498)"/>
<path d="M0 0 C0.33 0.66 0.66 1.32 1 2 C0.67 2.99 0.34 3.98 0 5 C-0.66 5 -1.32 5 -2 5 C-2.59732819 7.76264289 -3 10.16032769 -3 13 C-4.37028581 17.48457176 -6.8680048 21.51665919 -10 25 C-10.66 25 -11.32 25 -12 25 C-11.938125 25.928125 -11.87625 26.85625 -11.8125 27.8125 C-12 31 -12 31 -13.375 32.875 C-15 34 -15 34 -17 34 C-17.268125 34.53625 -17.53625 35.0725 -17.8125 35.625 C-19.20833333 38.41666667 -20.60416667 41.20833333 -22 44 C-23 41 -23 41 -21.69921875 37.83984375 C-21.04006084 36.533241 -20.36853831 35.23283267 -19.6875 33.9375 C-19.32938232 33.24084229 -18.97126465 32.54418457 -18.60229492 31.82641602 C-15.7488844 26.32284325 -12.7980934 20.87031963 -9.8125 15.4375 C-9.20764771 14.33233032 -9.20764771 14.33233032 -8.59057617 13.20483398 C-6.00401902 8.56339207 -3.16062432 4.27217603 0 0 Z " fill="#E62230" transform="translate(322,229)"/>
<path d="M0 0 C0.99 0 1.98 0 3 0 C3.268125 0.78375 3.53625 1.5675 3.8125 2.375 C4.84814432 5.28114923 4.84814432 5.28114923 8 7 C8.58984375 9.1015625 8.58984375 9.1015625 8.9375 11.625 C9.68502841 16.01514568 10.99231501 19.35115724 13.11328125 23.23828125 C14.22009314 25.43727756 14.69566036 27.56528291 15 30 C16.32 30 17.64 30 19 30 C19 31.32 19 32.64 19 34 C18.34 34 17.68 34 17 34 C16.67 35.32 16.34 36.64 16 38 C16.66 38 17.32 38 18 38 C19.20272819 40.40545638 19.10071472 41.94996953 19.0625 44.625 C19.05347656 45.44226563 19.04445313 46.25953125 19.03515625 47.1015625 C19.02355469 47.72804688 19.01195312 48.35453125 19 49 C17.24582109 45.67994957 15.92118602 42.27426604 14.609375 38.7578125 C13.91521484 36.90929687 13.91521484 36.90929687 13.20703125 35.0234375 C12.484395 33.09156086 11.76278652 31.15930918 11.04248047 29.2265625 C7.95422675 20.95115852 4.68914488 12.80291058 1.11035156 4.72607422 C0 2 0 2 0 0 Z " fill="#DE7A7D" transform="translate(443,658)"/>
<path d="M0 0 C5.55012695 -0.02484561 11.10022102 -0.04292868 16.65039062 -0.05493164 C18.53581303 -0.05993919 20.4212316 -0.06674715 22.30664062 -0.07543945 C25.02735344 -0.08766253 27.7480146 -0.09326424 30.46875 -0.09765625 C31.71924133 -0.10539818 31.71924133 -0.10539818 32.99499512 -0.11329651 C39.37142459 -0.11389836 46.02707232 -0.10483158 52 2.375 C52.66128906 2.64054687 53.32257812 2.90609375 54.00390625 3.1796875 C54.66261719 3.45039063 55.32132813 3.72109375 56 4 C57.31042528 4.50541253 58.62294932 5.00541658 59.9375 5.5 C60.5871875 5.7475 61.236875 5.995 61.90625 6.25 C63.41339068 6.78987129 64.93696025 7.28464615 66.46875 7.75 C67.2834375 7.9975 68.098125 8.245 68.9375 8.5 C70.06478516 8.82484375 70.06478516 8.82484375 71.21484375 9.15625 C71.80394531 9.4346875 72.39304687 9.713125 73 10 C73.495 11.485 73.495 11.485 74 13 C74.99 13.495 74.99 13.495 76 14 C76 14.66 76 15.32 76 16 C73.81787415 14.92171299 71.65780709 13.81681667 69.51171875 12.66796875 C49.65254034 2.25769404 25.18303146 -2.39734814 3.1875 4 C1.12284322 4.65995688 -0.94037148 5.32451422 -3 6 C-3.66 6 -4.32 6 -5 6 C-5 5.34 -5 4.68 -5 4 C-3.35 4 -1.7 4 0 4 C0 2.68 0 1.36 0 0 Z " fill="#CA282E" transform="translate(464,258)"/>
<path d="M0 0 C0.495 1.485 0.495 1.485 1 3 C0.34 3.66 -0.32 4.32 -1 5 C-1.103125 5.598125 -1.20625 6.19625 -1.3125 6.8125 C-2.33770158 10.07450501 -4.52558521 11.6982188 -7 14 C-9.92473888 16.68830695 -9.92473888 16.68830695 -11.875 20.0625 C-13.54161819 22.93278689 -16.06494884 23.59362132 -19 25 C-19.66 25.99 -20.32 26.98 -21 28 C-26.33333333 31 -26.33333333 31 -29 31 C-29 31.99 -29 32.98 -29 34 C-27.515 34.495 -27.515 34.495 -26 35 C-26.33 35.99 -26.66 36.98 -27 38 C-29.57076457 38.07345042 -31.80476282 38.04749013 -34.3125 37.4375 C-38.0563139 36.82804192 -41.25447419 37.4286486 -45 38 C-42.49484216 35.49484216 -40.38931835 34.94900914 -37 34 C-35.68 34 -34.36 34 -33 34 C-32.76667969 33.39929688 -32.53335938 32.79859375 -32.29296875 32.1796875 C-30.67212072 29.44726091 -29.09078925 28.63114762 -26.3125 27.125 C-19.5848099 23.27089759 -14.8118083 19.05931415 -10 13 C-9.34 13 -8.68 13 -8 13 C-7.73445312 12.43796875 -7.46890625 11.8759375 -7.1953125 11.296875 C-5.90668966 8.82069778 -4.43869639 6.56155118 -2.875 4.25 C-2.33617187 3.45078125 -1.79734375 2.6515625 -1.2421875 1.828125 C-0.83226562 1.22484375 -0.42234375 0.6215625 0 0 Z " fill="#CA262E" transform="translate(565,392)"/>
<path d="M0 0 C1.72513745 5.16795713 -0.21600734 9.67495533 -1.625 14.75 C-1.87378906 15.71421875 -2.12257813 16.6784375 -2.37890625 17.671875 C-4.44857945 25.25037984 -7.25796516 31.52682994 -13 37 C-13.66 36.67 -14.32 36.34 -15 36 C-14.67 34.68 -14.34 33.36 -14 32 C-14.99 32 -15.98 32 -17 32 C-17 28 -17 28 -15.125 25.9375 C-14.42375 25.298125 -13.7225 24.65875 -13 24 C-12.34 23.01 -11.68 22.02 -11 21 C-10.67 22.98 -10.34 24.96 -10 27 C-8.39585785 25.81476003 -8.39585785 25.81476003 -7 24 C-6.9549714 22.33394172 -6.96125079 20.66621616 -7 19 C-6.35747635 16.9921136 -5.69258229 14.99117408 -5 13 C-5 12.01 -5 11.02 -5 10 C-4.34 10 -3.68 10 -3 10 C-3 8.02 -3 6.04 -3 4 C-2.34 3.67 -1.68 3.34 -1 3 C-0.67 2.01 -0.34 1.02 0 0 Z " fill="#E42421" transform="translate(516,710)"/>
<path d="M0 0 C0.33 0 0.66 0 1 0 C5.70957087 27.47249675 4.85307935 53.84171182 -1 81 C-2.16306443 77.45049966 -1.92365049 74.44176052 -1.5625 70.75 C-1.46066406 69.67234375 -1.35882812 68.5946875 -1.25390625 67.484375 C-1.17011719 66.66453125 -1.08632813 65.8446875 -1 65 C-0.34 65 0.32 65 1 65 C1.7180376 49.65576567 2.14537369 34.36115333 2 19 C1.34 19 0.68 19 0 19 C0 12.73 0 6.46 0 0 Z " fill="#E89398" transform="translate(691,309)"/>
<path d="M0 0 C0.66 0.99 1.32 1.98 2 3 C2.66 3 3.32 3 4 3 C4 3.99 4 4.98 4 6 C4.66 6 5.32 6 6 6 C5.57359552 9.09302357 5.07540939 12.06163395 4 15 C1.4375 16.1875 1.4375 16.1875 -1 17 C-1.89830839 20.05272465 -1.89830839 20.05272465 -2 23 C-2.66 23 -3.32 23 -4 23 C-4 23.66 -4 24.32 -4 25 C-4.66 25 -5.32 25 -6 25 C-6.33 25.66 -6.66 26.32 -7 27 C-6.43395775 21.26882222 -5.30433687 16.14690784 -3.5 10.6875 C-3.27441406 9.98560547 -3.04882812 9.28371094 -2.81640625 8.56054688 C-1.89508253 5.70117237 -0.9499878 2.84996341 0 0 Z " fill="#E32224" transform="translate(298,273)"/>
<path d="M0 0 C6.07962025 -0.65103017 10.64359888 1.64294052 16.0625 4.0625 C16.99263916 4.47008545 17.92277832 4.8776709 18.88110352 5.29760742 C28.36113431 9.50592854 37.41033023 14.1681329 46 20 C45.01 20.66 44.02 21.32 43 22 C42.566875 21.525625 42.13375 21.05125 41.6875 20.5625 C39.97690387 18.76313043 39.97690387 18.76313043 37 18 C37 17.34 37 16.68 37 16 C32.7216008 14.12924898 28.39809581 13.02090091 23.875 11.9375 C16.31930693 10.10643564 16.31930693 10.10643564 13 9 C11.8125 6.9375 11.8125 6.9375 11 5 C8.36 5 5.72 5 3 5 C3.33 4.01 3.66 3.02 4 2 C2.68 1.67 1.36 1.34 0 1 C0 0.67 0 0.34 0 0 Z " fill="#E16B6F" transform="translate(555,154)"/>
<path d="M0 0 C1.14794922 1.70336914 1.14794922 1.70336914 2 4 C1.16064453 6.26733398 1.16064453 6.26733398 -0.3671875 8.74609375 C-1.19609497 10.11773682 -1.19609497 10.11773682 -2.04174805 11.51708984 C-2.94920776 12.96269287 -2.94920776 12.96269287 -3.875 14.4375 C-4.47546143 15.41928223 -5.07592285 16.40106445 -5.69458008 17.41259766 C-6.89710367 19.37560473 -8.10608568 21.33467136 -9.32177734 23.28955078 C-10.76811342 25.62548664 -12.18490506 27.97430014 -13.58203125 30.33984375 C-17.47330521 36.87625135 -17.47330521 36.87625135 -19 39 C-19.66 39 -20.32 39 -21 39 C-21.36625971 34.48279689 -21.36625971 34.48279689 -19.625 32.1875 C-18 31 -18 31 -16 31 C-15.87625 30.29875 -15.7525 29.5975 -15.625 28.875 C-14.95731453 25.80364682 -14.13303617 22.9325642 -13 20 C-12.34 19.67 -11.68 19.34 -11 19 C-10.34 19.33 -9.68 19.66 -9 20 C-9.2475 19.0925 -9.495 18.185 -9.75 17.25 C-10 14 -10 14 -8.125 11.75 C-7.42375 11.1725 -6.7225 10.595 -6 10 C-5.67 9.34 -5.34 8.68 -5 8 C-4.01 8 -3.02 8 -2 8 C-1.855625 7.236875 -1.71125 6.47375 -1.5625 5.6875 C-1 3 -1 3 0 0 Z " fill="#DD6D6E" transform="translate(574,585)"/>
<path d="M0 0 C8.35465408 7.01052992 12.79947871 21.44455969 16.625 31.3125 C16.97973389 32.21339355 17.33446777 33.11428711 17.69995117 34.04248047 C18.01810791 34.89084473 18.33626465 35.73920898 18.6640625 36.61328125 C18.94717285 37.36391846 19.2302832 38.11455566 19.52197266 38.88793945 C20.06451212 41.28503289 19.77924698 42.69518958 19 45 C18.49384702 43.73160474 17.99530901 42.46016898 17.5 41.1875 C17.2215625 40.47980469 16.943125 39.77210938 16.65625 39.04296875 C16 37 16 37 16 34 C15.01 34 14.02 34 13 34 C12.67 30.7 12.34 27.4 12 24 C11.34 24 10.68 24 10 24 C6.9099331 20.06718758 5.47416578 16.97874064 5 12 C4.01 12.33 3.02 12.66 2 13 C2 11.35 2 9.7 2 8 C1.34 8 0.68 8 0 8 C0 5.36 0 2.72 0 0 Z " fill="#DD4C57" transform="translate(666,243)"/>
<path d="M0 0 C2 1.125 2 1.125 4 3 C4.25 6.1875 4.25 6.1875 4 9 C4.66 9 5.32 9 6 9 C6.268125 10.11375 6.53625 11.2275 6.8125 12.375 C7.65809019 16.21840951 7.65809019 16.21840951 11 18 C11.6875 20.125 11.6875 20.125 12 22 C12.66 21.67 13.32 21.34 14 21 C14.25 27.625 14.25 27.625 12 31 C9.97678544 27.15759629 7.98573146 23.29938991 6 19.4375 C5.42765625 18.35146484 4.8553125 17.26542969 4.265625 16.14648438 C-0.84533898 6.13751324 -0.84533898 6.13751324 0 0 Z " fill="#DE555E" transform="translate(304,425)"/>
<path d="M0 0 C0.495 0.99 0.495 0.99 1 2 C-1.97430912 3.35195869 -4.35197299 4.0424795 -7.625 4.4375 C-11.3725152 5.06208587 -11.52619589 5.46526475 -14 8 C-27.22620577 15.79236249 -27.22620577 15.79236249 -33.1953125 14.5390625 C-33.79085938 14.36117187 -34.38640625 14.18328125 -35 14 C-26.54809775 9.29287622 -18.13022937 4.79003737 -9.0625 1.375 C-8.38316406 1.1157373 -7.70382812 0.85647461 -7.00390625 0.58935547 C-2.26007829 -1.13003914 -2.26007829 -1.13003914 0 0 Z " fill="#DD686D" transform="translate(424,154)"/>
<path d="M0 0 C0.99 0.33 1.98 0.66 3 1 C3.12117188 1.7734375 3.24234375 2.546875 3.3671875 3.34375 C3.88584083 6.56737992 4.43640128 9.78394018 5 13 C5.13277344 13.804375 5.26554687 14.60875 5.40234375 15.4375 C6.37231092 20.31504922 7.9470144 22.22690459 12 25 C12 25.66 12 26.32 12 27 C13.32 27.66 14.64 28.32 16 29 C16 29.66 16 30.32 16 31 C21.28 31.33 26.56 31.66 32 32 C28.25462498 34.49691668 25.3321002 34.49738928 21 34 C18.22664541 33.15808879 16.41791823 32.4465275 14 31 C13.32710938 30.60554687 12.65421875 30.21109375 11.9609375 29.8046875 C4.67089198 24.58971111 2.735929 16.4147402 1 8 C0.59405883 5.33490797 0.28468815 2.68206201 0 0 Z " fill="#E89C9D" transform="translate(465,717)"/>
<path d="M0 0 C0 0.99 0 1.98 0 3 C-3.26938086 3.83910389 -6.54072534 4.67028333 -9.8125 5.5 C-10.74126953 5.73847656 -11.67003906 5.97695313 -12.62695312 6.22265625 C-13.51962891 6.44824219 -14.41230469 6.67382812 -15.33203125 6.90625 C-16.15421143 7.11572266 -16.9763916 7.32519531 -17.82348633 7.54101562 C-20 8 -20 8 -23 8 C-23 7.34 -23 6.68 -23 6 C-27.455 6.495 -27.455 6.495 -32 7 C-29.04403331 5.02935554 -27.29147073 4.45575526 -23.88671875 3.7109375 C-22.88576172 3.49179687 -21.88480469 3.27265625 -20.85351562 3.046875 C-19.28633789 2.71429687 -19.28633789 2.71429687 -17.6875 2.375 C-16.65431641 2.14554688 -15.62113281 1.91609375 -14.55664062 1.6796875 C-9.64300885 0.62068797 -5.05934646 -0.3309039 0 0 Z " fill="#858489" transform="translate(441,683)"/>
<path d="M0 0 C0.99 0 1.98 0 3 0 C1.41189755 4.63122613 -1.07802063 8.36389329 -3.8125 12.375 C-4.23853516 13.00921875 -4.66457031 13.6434375 -5.10351562 14.296875 C-7.99578451 18.58495897 -10.97886771 22.80187362 -14 27 C-15 24 -15 24 -15 21 C-14.34 21 -13.68 21 -13 21 C-13 20.01 -13 19.02 -13 18 C-12.34 17.67 -11.68 17.34 -11 17 C-8.11774638 12.61396189 -5.66055878 7.98167635 -4 3 C-3.34 3.33 -2.68 3.66 -2 4 C-2 3.34 -2 2.68 -2 2 C-1.34 2 -0.68 2 0 2 C0 1.34 0 0.68 0 0 Z " fill="#DD666D" transform="translate(652,469)"/>
<path d="M0 0 C0 0.66 0 1.32 0 2 C-2.64 2.33 -5.28 2.66 -8 3 C-8 3.66 -8 4.32 -8 5 C-15.25647127 6.18106629 -22.50125079 6.18613622 -29.8359375 6.18530273 C-31.99499067 6.18749491 -34.15353642 6.20571844 -36.3125 6.22460938 C-43.15754909 6.25157005 -49.45581356 6.15583225 -56 4 C-56 3.34 -56 2.68 -56 2 C-55.030625 2.144375 -54.06125 2.28875 -53.0625 2.4375 C-34.14941134 5.11927776 -18.17597186 0 0 0 Z " fill="#CD272F" transform="translate(520,430)"/>
<path d="M0 0 C4.84146109 1.46710942 8.55948972 4.3512744 12 8 C12 8.66 12 9.32 12 10 C12.99 10.33 13.98 10.66 15 11 C17.71043435 13.27326752 19.43319224 15.62463614 21.125 18.6875 C22.61616373 22.04061719 22.61616373 22.04061719 25 23 C25.95727866 25.21624515 26.81781938 27.47478914 27.625 29.75 C28.07101562 30.98234375 28.51703125 32.2146875 28.9765625 33.484375 C29.87700629 36.57750252 30.23061312 38.81996652 30 42 C27.6720651 39.6720651 27.01461438 37.41759777 25.92578125 34.36328125 C24.55057938 30.85274484 22.81889113 27.5443444 21.0859375 24.19921875 C20 22 20 22 19 19 C18.34 19 17.68 19 17 19 C16.67 17.68 16.34 16.36 16 15 C15.34 15 14.68 15 14 15 C12.4921875 13.5390625 12.4921875 13.5390625 10.875 11.625 C10.33617187 10.99851562 9.79734375 10.37203125 9.2421875 9.7265625 C8 8 8 8 8 6 C7.4225 5.7525 6.845 5.505 6.25 5.25 C3.6997003 3.83316683 1.98214299 2.12372463 0 0 Z " fill="#CF282F" transform="translate(544,277)"/>
<path d="M0 0 C45.7176259 -0.48061551 45.7176259 -0.48061551 63 4 C63 4.33 63 4.66 63 5 C58.67639569 4.73785931 54.3531002 4.47120249 50.0300293 4.20043945 C48.56070418 4.10904138 47.09130303 4.01885685 45.62182617 3.92993164 C43.50418058 3.80156775 41.38685084 3.66877738 39.26953125 3.53515625 C37.36071167 3.41732788 37.36071167 3.41732788 35.41333008 3.29711914 C32 3 32 3 29.4453125 2.48632812 C26.48024649 1.89663049 23.62658984 1.78382052 20.60546875 1.68359375 C19.40341797 1.64169922 18.20136719 1.59980469 16.96289062 1.55664062 C15.71701172 1.51732422 14.47113281 1.47800781 13.1875 1.4375 C11.28967773 1.37272461 11.28967773 1.37272461 9.35351562 1.30664062 C6.23578111 1.2007553 3.11796965 1.09867595 0 1 C0 0.67 0 0.34 0 0 Z " fill="#EBA2A5" transform="translate(472,142)"/>
<path d="M0 0 C0.66 0.33 1.32 0.66 2 1 C1.38125 1.7425 0.7625 2.485 0.125 3.25 C-1.97925332 5.76683572 -1.97925332 5.76683572 -2.9375 8 C-4.45213628 10.85108005 -6.69927326 12.75538855 -9 15 C-10.02813611 16.31175986 -11.04084432 17.6369893 -12 19 C-12.721875 18.7525 -13.44375 18.505 -14.1875 18.25 C-17.1794348 17.68262931 -17.1794348 17.68262931 -19.8125 19.9375 C-20.8953125 20.9584375 -20.8953125 20.9584375 -22 22 C-18.36465693 13.80691337 -10.02843347 8.24288406 -3.22265625 2.78515625 C-1.15219979 1.18837217 -1.15219979 1.18837217 0 0 Z " fill="#E8737B" transform="translate(362,186)"/>
<path d="M0 0 C0.66 0 1.32 0 2 0 C2 0.66 2 1.32 2 2 C2.66 2 3.32 2 4 2 C5.47309111 4.10019014 6.81309635 6.17767729 8.125 8.375 C8.68380859 9.27992188 8.68380859 9.27992188 9.25390625 10.203125 C12 14.72965316 12 14.72965316 12 17 C12.66 17 13.32 17 14 17 C14 17.66 14 18.32 14 19 C14.99 19.33 15.98 19.66 17 20 C17 21.98 17 23.96 17 26 C17.99 26 18.98 26 20 26 C20 27.98 20 29.96 20 32 C11.94111743 22.21421403 5.27617999 11.51751486 0 0 Z " fill="#DB7278" transform="translate(317,456)"/>
<path d="M0 0 C1 2 1 2 0.13549805 4.79394531 C-0.54452271 6.54336426 -0.54452271 6.54336426 -1.23828125 8.328125 C-1.47910934 8.95475037 -1.71993744 9.58137573 -1.96806335 10.22698975 C-2.74236854 12.23751898 -3.52707544 14.24379166 -4.3125 16.25 C-5.08503133 18.24271115 -5.85540318 20.23624088 -6.62480164 22.23016357 C-7.32864508 24.05102054 -8.03784243 25.8698053 -8.74731445 27.68847656 C-9.91309845 30.77027234 -10.98221693 33.86662048 -12 37 C-13.11248367 33.66254898 -12.87275316 32.55940772 -12.07421875 29.21875 C-11.74454102 27.83236328 -11.74454102 27.83236328 -11.40820312 26.41796875 C-11.17037109 25.45503906 -10.93253906 24.49210938 -10.6875 23.5 C-10.46126953 22.53707031 -10.23503906 21.57414063 -10.00195312 20.58203125 C-8.26254618 13.39381927 -8.26254618 13.39381927 -6 10 C-5.61500109 8.34450469 -5.27206865 6.6777567 -5 5 C-4.34 5 -3.68 5 -3 5 C-2.87625 4.360625 -2.7525 3.72125 -2.625 3.0625 C-2.41875 2.381875 -2.2125 1.70125 -2 1 C-1.34 0.67 -0.68 0.34 0 0 Z " fill="#DE7A7C" transform="translate(532,667)"/>
<path d="M0 0 C0.99 0.33 1.98 0.66 3 1 C1.87548273 3.9719385 0.77706209 6.33440687 -1 9 C-1.66 9 -2.32 9 -3 9 C-3.22558594 9.66386719 -3.45117188 10.32773437 -3.68359375 11.01171875 C-5.4029135 14.9146256 -7.67795381 18.2879586 -10.0625 21.8125 C-10.52205078 22.50537109 -10.98160156 23.19824219 -11.45507812 23.91210938 C-12.60672222 25.62858332 -13.79977144 27.31713985 -15 29 C-15.33 29 -15.66 29 -16 29 C-16.20086443 25.28400809 -16.1519437 24.22791555 -14 21 C-13.01 21 -12.02 21 -11 21 C-11 19.02 -11 17.04 -11 15 C-9.68 15 -8.36 15 -7 15 C-7.226875 14.443125 -7.45375 13.88625 -7.6875 13.3125 C-8 11 -8 11 -6.75 8.25 C-6.1725 7.5075 -5.595 6.765 -5 6 C-4.01 6 -3.02 6 -2 6 C-2 4.68 -2 3.36 -2 2 C-1.34 2 -0.68 2 0 2 C0 1.34 0 0.68 0 0 Z " fill="#DA646A" transform="translate(609,532)"/>
<path d="M0 0 C2 2 2 2 2.00390625 3.8984375 C0.80438468 10.62849658 -1.21223541 16.98882146 -3.4375 23.4375 C-3.737771 24.31390137 -4.03804199 25.19030273 -4.34741211 26.09326172 C-4.64397705 26.92744629 -4.94054199 27.76163086 -5.24609375 28.62109375 C-5.51091553 29.3680249 -5.7757373 30.11495605 -6.04858398 30.88452148 C-7.09228849 33.20520395 -8.4079884 35.02333379 -10 37 C-10.40368295 30.54107286 -9.5915262 25.93891422 -7 20 C-6.67 21.32 -6.34 22.64 -6 24 C-3.74566386 18.43930418 -3.40038172 12.9214349 -3 7 C-2.01 7 -1.02 7 0 7 C0 4.69 0 2.38 0 0 Z " fill="#EB8589" transform="translate(687,390)"/>
<path d="M0 0 C2.72168444 1.36084222 2.92276641 3.11331598 3.85546875 5.8828125 C4.06816406 6.54023438 4.28085937 7.19765625 4.5 7.875 C4.71269531 8.49375 4.92539062 9.1125 5.14453125 9.75 C8.37873482 19.5518194 9.32688365 29.15431191 9.25 39.4375 C9.25773438 40.49904297 9.26546875 41.56058594 9.2734375 42.65429688 C9.27085937 43.67458984 9.26828125 44.69488281 9.265625 45.74609375 C9.26336914 46.66060303 9.26111328 47.5751123 9.25878906 48.51733398 C8.98773979 51.11761702 8.31635382 52.76239459 7 55 C7.00523682 54.18732666 7.01047363 53.37465332 7.01586914 52.53735352 C7.03656994 48.87907678 7.04963803 45.22081233 7.0625 41.5625 C7.07087891 40.28310547 7.07925781 39.00371094 7.08789062 37.68554688 C7.09111328 36.47060547 7.09433594 35.25566406 7.09765625 34.00390625 C7.10289307 32.87799072 7.10812988 31.7520752 7.11352539 30.59204102 C7.29545448 28.07029129 7.29545448 28.07029129 6 27 C5.92794489 25.31391034 5.91613932 23.62499341 5.9375 21.9375 C5.94652344 21.01839844 5.95554687 20.09929687 5.96484375 19.15234375 C5.98224609 18.08693359 5.98224609 18.08693359 6 17 C5.34 17 4.68 17 4 17 C3.79503906 16.37351562 3.59007812 15.74703125 3.37890625 15.1015625 C3.10949219 14.28429687 2.84007812 13.46703125 2.5625 12.625 C2.29566406 11.81289063 2.02882813 11.00078125 1.75390625 10.1640625 C1.04820271 7.98968201 1.04820271 7.98968201 0 6 C-0.039992 4.00039988 -0.04346799 1.99952758 0 0 Z " fill="#811210" transform="translate(569,309)"/>
<path d="M0 0 C0.33 0 0.66 0 1 0 C0.9285376 0.66032227 0.8570752 1.32064453 0.78344727 2.00097656 C-0.11270635 11.26462215 -0.11437497 20.45557148 -0.0625 29.75 C-0.05747097 31.33333191 -0.05291057 32.91666537 -0.04882812 34.5 C-0.03794281 38.33337272 -0.02075696 42.16666854 0 46 C-0.33 46 -0.66 46 -1 46 C-2.9840534 39.3759492 -3.34730353 33.27045004 -3.3125 26.375 C-3.31121094 25.31990234 -3.30992187 24.26480469 -3.30859375 23.17773438 C-3.20974726 15.11680317 -2.29501727 7.75934409 0 0 Z " fill="#6F100D" transform="translate(405,322)"/>
<path d="M0 0 C10.8493455 1.11205791 19.47050782 7.39721732 28.125 13.625 C28.764375 14.07987793 29.40375 14.53475586 30.0625 15.00341797 C33.62290091 17.64029214 35.99239438 19.94082658 38 24 C36.68 23.34 35.36 22.68 34 22 C34 21.34 34 20.68 34 20 C33.4225 19.9175 32.845 19.835 32.25 19.75 C29.38264421 18.79421474 28.08199155 17.14915257 26 15 C25.01 14.67 24.02 14.34 23 14 C23 13.34 23 12.68 23 12 C21.68 11.67 20.36 11.34 19 11 C19 10.34 19 9.68 19 9 C17.88625 8.71125 16.7725 8.4225 15.625 8.125 C12 7 12 7 10 5 C7.69088595 4.1526187 5.35525327 3.47578656 2.99609375 2.78125 C1 2 1 2 0 0 Z " fill="#700B0B" transform="translate(517,264)"/>
<path d="M0 0 C0.99 0 1.98 0 3 0 C5.19261408 4.28989712 6.87057581 8.32095691 8 13 C8.66 13 9.32 13 10 13 C9.34 11.35 8.68 9.7 8 8 C8.66 8 9.32 8 10 8 C12 14.75 12 14.75 12 17 C13.65 17 15.3 17 17 17 C17.33 19.31 17.66 21.62 18 24 C17.34 24 16.68 24 16 24 C15 22.66666667 14 21.33333333 13 20 C12.22914063 19.44054687 11.45828125 18.88109375 10.6640625 18.3046875 C7.42484879 15.50243517 5.71112279 12.59969469 3.6875 8.875 C3.32849609 8.24207031 2.96949219 7.60914063 2.59960938 6.95703125 C0 2.29258929 0 2.29258929 0 0 Z " fill="#E42123" transform="translate(409,595)"/>
<path d="M0 0 C-0.5625 2.3125 -0.5625 2.3125 -2 5 C-5.5625 6.6875 -5.5625 6.6875 -9 8 C-9.33 8.66 -9.66 9.32 -10 10 C-11.73061114 11.01224425 -13.46454283 12.02003754 -15.2265625 12.9765625 C-17.14730654 14.01892646 -17.14730654 14.01892646 -19.1875 15.8125 C-21 17 -21 17 -23.11328125 16.57421875 C-24.04720703 16.28998047 -24.04720703 16.28998047 -25 16 C-4.21088435 0 -4.21088435 0 0 0 Z " fill="#D5585F" transform="translate(389,169)"/>
<path d="M0 0 C0 0.33 0 0.66 0 1 C-3.63 1.33 -7.26 1.66 -11 2 C-11 2.66 -11 3.32 -11 4 C-11.55872803 4.07516846 -12.11745605 4.15033691 -12.69311523 4.2277832 C-15.27588073 4.58045105 -17.85660519 4.94640271 -20.4375 5.3125 C-21.31599609 5.43044922 -22.19449219 5.54839844 -23.09960938 5.66992188 C-28.3478957 6.42521031 -33.07585079 7.54497933 -38.01196289 9.50073242 C-40.35355452 10.08879025 -41.7360621 9.75696958 -44 9 C-14.65518213 -0.29052123 -14.65518213 -0.29052123 0 0 Z " fill="#E6979A" transform="translate(469,143)"/>
<path d="M0 0 C0.99 0.33 1.98 0.66 3 1 C3.33 2.65 3.66 4.3 4 6 C4.94875 6.0825 5.8975 6.165 6.875 6.25 C10 7 10 7 11.09375 8.65625 C12.18657754 11.48252812 12.92029958 14.30307097 13.625 17.25 C13.88539063 18.32765625 14.14578125 19.4053125 14.4140625 20.515625 C14.60742188 21.33546875 14.80078125 22.1553125 15 23 C10.90128046 19.35018784 8.1804939 14.95918469 5.25 10.375 C4.74339844 9.59898437 4.23679687 8.82296875 3.71484375 8.0234375 C0 2.25591728 0 2.25591728 0 0 Z " fill="#E0535D" transform="translate(380,550)"/>
<path d="M0 0 C0.66 0.33 1.32 0.66 2 1 C2.99 0.67 3.98 0.34 5 0 C3.3518456 5.03382098 0.39351949 9.0260491 -2.625 13.3125 C-3.140625 14.05306641 -3.65625 14.79363281 -4.1875 15.55664062 C-5.45394726 17.37422697 -6.72485759 19.18850838 -8 21 C-8.94484589 17.6100949 -9.16242542 15.39785892 -8 12 C-5.9375 10.6875 -5.9375 10.6875 -4 10 C-4 9.01 -4 8.02 -4 7 C-3.34 7 -2.68 7 -2 7 C-1.34 4.69 -0.68 2.38 0 0 Z " fill="#DB666E" transform="translate(621,512)"/>
<path d="M0 0 C2 0 2 0 4.125 1.875 C6 4 6 4 6 6 C8.31 6.33 10.62 6.66 13 7 C13.061875 7.94875 13.12375 8.8975 13.1875 9.875 C13.455625 10.90625 13.72375 11.9375 14 13 C16.23259665 14.22772827 16.23259665 14.22772827 19 15 C22.3125 17 22.3125 17 25 19 C25 19.66 25 20.32 25 21 C21.4124787 19.66749209 18.1635377 18.169283 15 16 C15 15.34 15 14.68 15 14 C14.21625 13.7525 13.4325 13.505 12.625 13.25 C9.56058543 11.79075497 9.38274239 10.94985044 8 8 C7.38125 7.690625 6.7625 7.38125 6.125 7.0625 C3.2468137 5.62340685 1.85530197 3.58417061 0 1 C0 0.67 0 0.34 0 0 Z " fill="#7A0E0D" transform="translate(423,403)"/>
<path d="M0 0 C3.70344028 1.23448009 5.30250982 3.23334341 8 6 C8.66 6.33 9.32 6.66 10 7 C10 7.66 10 8.32 10 9 C10.70898438 9.26941406 11.41796875 9.53882813 12.1484375 9.81640625 C15.08332683 11.03458634 17.83101741 12.42505488 20.625 13.9375 C21.56601562 14.44152344 22.50703125 14.94554687 23.4765625 15.46484375 C25.69528553 16.81462417 27.28571415 18.07286658 29 20 C24.86954169 19.38498691 21.69214393 17.98863121 18 16.0625 C14.38210214 14.18433108 10.81133463 12.45026887 7 11 C7 9.68 7 8.36 7 7 C4.66785852 5.79371992 2.50357861 4.8345262 0 4 C0 2.68 0 1.36 0 0 Z " fill="#D72830" transform="translate(428,410)"/>
<path d="M0 0 C2 0 2 0 3.3125 1.1875 C4.1478125 2.0846875 4.1478125 2.0846875 5 3 C5.886875 3.7425 6.77375 4.485 7.6875 5.25 C10 8 10 8 10.3125 11.8125 C10.1578125 13.3903125 10.1578125 13.3903125 10 15 C10.99 15.33 11.98 15.66 13 16 C13 17.65 13 19.3 13 21 C9.93286909 18.12203135 7.63008876 15.17154928 5.375 11.625 C4.78460938 10.70976563 4.19421875 9.79453125 3.5859375 8.8515625 C1.97628625 5.95736197 0.94369536 3.16745273 0 0 Z " fill="#DA3941" transform="translate(366,528)"/>
<path d="M0 0 C1.45823212 -0.0270043 2.91660675 -0.04639787 4.375 -0.0625 C5.18710937 -0.07410156 5.99921875 -0.08570313 6.8359375 -0.09765625 C9 0 9 0 11 1 C12.88472859 1.15344209 14.77427874 1.24959571 16.6640625 1.31640625 C17.78554688 1.35830078 18.90703125 1.40019531 20.0625 1.44335938 C21.238125 1.48267578 22.41375 1.52199219 23.625 1.5625 C24.80835938 1.60568359 25.99171875 1.64886719 27.2109375 1.69335938 C30.14050328 1.79967426 33.07015588 1.90170642 36 2 C36 2.33 36 2.66 36 3 C24.00557121 4.99907146 11.86528742 4.51687915 0 2 C0 1.34 0 0.68 0 0 Z " fill="#750D0F" transform="translate(468,431)"/>
<path d="M0 0 C0.66 0 1.32 0 2 0 C4.11199207 4.22398413 3.51536391 9.41655074 3 14 C1.67820584 17.56791989 0.00142399 20.76912984 -2 24 C-2.33 24 -2.66 24 -3 24 C-1.25 9.75 -1.25 9.75 0 6 C-0.32380126 4.66431979 -0.65657551 3.33076989 -1 2 C-0.67 1.34 -0.34 0.68 0 0 Z " fill="#DC262A" transform="translate(674,416)"/>
<path d="M0 0 C1.98 0 3.96 0 6 0 C4.5102402 8.49163085 1.31428738 16.0894839 -2 24 C-2.66 24 -3.32 24 -4 24 C-4.125 21.625 -4.125 21.625 -4 19 C-3.34 18.34 -2.68 17.68 -2 17 C0.8069382 11.03989335 1.28267556 6.41337779 0 0 Z " fill="#6E0C0E" transform="translate(569,368)"/>
<path d="M0 0 C3.85049266 1.68634715 7.02266397 4.18021609 10.3125 6.75 C10.88701904 7.19520996 11.46153809 7.64041992 12.0534668 8.09912109 C16.14116026 11.28402172 20.11629435 14.56788803 24 18 C23.67 18.66 23.34 19.32 23 20 C19.43617503 18.02009724 16.86695486 15.86695486 14 13 C13.0925 12.484375 12.185 11.96875 11.25 11.4375 C10.13625 10.7259375 10.13625 10.7259375 9 10 C9 9.01 9 8.02 9 7 C7.02 7 5.04 7 3 7 C2.01 4.69 1.02 2.38 0 0 Z " fill="#DB6F72" transform="translate(608,180)"/>
<path d="M0 0 C6.04727256 5.66931803 12.24164001 12.07855594 15 20 C8.82146495 17.48281905 4.2215368 11.71603416 1 6 C0.1875 2.5625 0.1875 2.5625 0 0 Z " fill="#D6595F" transform="translate(646,215)"/>
<path d="M0 0 C1.43883545 -0.00604248 1.43883545 -0.00604248 2.90673828 -0.01220703 C4.42436768 0.00156982 4.42436768 0.00156982 5.97265625 0.015625 C7.52122314 0.02360107 7.52122314 0.02360107 9.10107422 0.03173828 C18.3934676 0.14699956 27.3897688 0.55154158 36.03515625 4.265625 C36.03515625 4.595625 36.03515625 4.925625 36.03515625 5.265625 C33.06515625 5.265625 30.09515625 5.265625 27.03515625 5.265625 C27.03515625 4.275625 27.03515625 3.285625 27.03515625 2.265625 C15.15515625 2.265625 3.27515625 2.265625 -8.96484375 2.265625 C-5.19863591 0.38252108 -3.96977704 0.01041448 0 0 Z " fill="#7D0E11" transform="translate(480.96484375,258.734375)"/>
<path d="M0 0 C3.22795322 0.95966177 4.74128361 1.66099231 6.8125 4.375 C8 7 8 7 8 11 C6.35 10.67 4.7 10.34 3 10 C2.01 11.485 2.01 11.485 1 13 C0.855625 11.88625 0.71125 10.7725 0.5625 9.625 C0.21627965 6.17857953 0.21627965 6.17857953 -1 4 C-0.5625 1.875 -0.5625 1.875 0 0 Z " fill="#DF2429" transform="translate(658,234)"/>
<path d="M0 0 C-0.125 1.8125 -0.125 1.8125 -1 4 C-2.96615661 5.0650015 -4.96726926 6.06833174 -7 7 C-7.33 7.66 -7.66 8.32 -8 9 C-8.9590625 9.2165625 -8.9590625 9.2165625 -9.9375 9.4375 C-12.38210855 9.86165035 -12.38210855 9.86165035 -14 13 C-14.66 13 -15.32 13 -16 13 C-16.33 13.99 -16.66 14.98 -17 16 C-19.0625 16.6875 -19.0625 16.6875 -21 17 C-16.78395577 11.83534582 -12.38080761 6.98712997 -7 3 C-6.34 3 -5.68 3 -5 3 C-5 2.34 -5 1.68 -5 1 C-3 0 -3 0 0 0 Z " fill="#740C0F" transform="translate(445,272)"/>
<path d="M0 0 C1.1557859 3.41779568 0.82775871 5.6089652 -0.109375 9.0625 C-0.36976563 10.02414062 -0.63015625 10.98578125 -0.8984375 11.9765625 C-1.17945313 12.97429688 -1.46046875 13.97203125 -1.75 15 C-2.01554688 15.99773438 -2.28109375 16.99546875 -2.5546875 18.0234375 C-3.83893773 22.67416892 -4.87822837 26.23903963 -8 30 C-7.59628715 24.02929949 -7.11727284 18.6460609 -5 13 C-5 12.01 -5 11.02 -5 10 C-4.34 10 -3.68 10 -3 10 C-3 8.02 -3 6.04 -3 4 C-2.34 3.67 -1.68 3.34 -1 3 C-0.67 2.01 -0.34 1.02 0 0 Z " fill="#DA6E73" transform="translate(516,710)"/>
<path d="M0 0 C0.99 0.33 1.98 0.66 3 1 C1.55676531 5.73789165 -0.37226733 9.98858151 -2.625 14.375 C-2.94984375 15.01566406 -3.2746875 15.65632812 -3.609375 16.31640625 C-4.40257407 17.87947501 -5.20077031 19.44000622 -6 21 C-6.33 21 -6.66 21 -7 21 C-6.93989582 19.06164034 -6.85108283 17.12415509 -6.75 15.1875 C-6.70359375 14.10855469 -6.6571875 13.02960937 -6.609375 11.91796875 C-6 9 -6 9 -3.953125 7.23828125 C-2.98632812 6.62533203 -2.98632812 6.62533203 -2 6 C-2 5.34 -2 4.68 -2 4 C-1.01 4 -0.02 4 1 4 C0.67 2.68 0.34 1.36 0 0 Z " fill="#DD666A" transform="translate(546,633)"/>
<path d="M0 0 C0 0.66 0 1.32 0 2 C-1.06541016 2.18175781 -1.06541016 2.18175781 -2.15234375 2.3671875 C-3.07144531 2.53476562 -3.99054688 2.70234375 -4.9375 2.875 C-5.85402344 3.03742188 -6.77054687 3.19984375 -7.71484375 3.3671875 C-8.46894531 3.57601563 -9.22304688 3.78484375 -10 4 C-10.33 4.66 -10.66 5.32 -11 6 C-13 6.66666667 -15 7.33333333 -17 8 C-17.33 8.66 -17.66 9.32 -18 10 C-20.06640625 10.4140625 -20.06640625 10.4140625 -22.5625 10.625 C-23.80193359 10.73714844 -23.80193359 10.73714844 -25.06640625 10.8515625 C-26.02353516 10.92503906 -26.02353516 10.92503906 -27 11 C-20.8266696 4.09174932 -9.24202728 0 0 0 Z " fill="#770B0C" transform="translate(472,261)"/>
<path d="M0 0 C0.33 0 0.66 0 1 0 C1.33 1.65 1.66 3.3 2 5 C3.32 5 4.64 5 6 5 C6 6.32 6 7.64 6 9 C5.34 9 4.68 9 4 9 C3.67 10.32 3.34 11.64 3 13 C3.66 13 4.32 13 5 13 C6.20272819 15.40545638 6.10071472 16.94996953 6.0625 19.625 C6.05347656 20.44226563 6.04445313 21.25953125 6.03515625 22.1015625 C6.02355469 22.72804688 6.01195312 23.35453125 6 24 C2.24672131 16.63904396 -0.13089704 9.24199306 -1 1 C-0.67 0.67 -0.34 0.34 0 0 Z " fill="#D22D31" transform="translate(456,683)"/>
<path d="M0 0 C0.33 0.66 0.66 1.32 1 2 C0.67 2.99 0.34 3.98 0 5 C-0.66 5 -1.32 5 -2 5 C-2.11601562 5.71929687 -2.23203125 6.43859375 -2.3515625 7.1796875 C-3.02593569 10.11280462 -4.02146099 12.44253177 -5.375 15.125 C-5.79523438 15.97320312 -6.21546875 16.82140625 -6.6484375 17.6953125 C-7.92349534 19.86954408 -9.05476508 21.40844415 -11 23 C-11.66 23 -12.32 23 -13 23 C-11.51020556 17.59417445 -8.93840041 13.35226598 -5.9375 8.6875 C-5.47794922 7.95982422 -5.01839844 7.23214844 -4.54492188 6.48242188 C-1.17900989 1.17900989 -1.17900989 1.17900989 0 0 Z " fill="#E38386" transform="translate(322,229)"/>
<path d="M0 0 C0.99 0.33 1.98 0.66 3 1 C2.56429688 1.37769531 2.12859375 1.75539063 1.6796875 2.14453125 C-3.65116666 7.07153282 -6.80374242 12.52552952 -10 19 C-10.33 19 -10.66 19 -11 19 C-11.14285714 11.57142857 -11.14285714 11.57142857 -10 8 C-10.66 7.67 -11.32 7.34 -12 7 C-11.67 6.34 -11.34 5.68 -11 5 C-8 6 -8 6 -7 8 C-6.54625 7.34 -6.0925 6.68 -5.625 6 C-5.08875 5.34 -4.5525 4.68 -4 4 C-3.34 4 -2.68 4 -2 4 C-2 3.01 -2 2.02 -2 1 C-1.34 0.67 -0.68 0.34 0 0 Z " fill="#6B7178" transform="translate(381,709)"/>
<path d="M0 0 C2.6875 -0.3125 2.6875 -0.3125 5 0 C2.22700792 3.79736798 -0.42636501 6.18827722 -4.4375 8.625 C-5.36433594 9.19476563 -6.29117188 9.76453125 -7.24609375 10.3515625 C-8.15488281 10.89554687 -9.06367187 11.43953125 -10 12 C-10.87785156 12.58523438 -11.75570312 13.17046875 -12.66015625 13.7734375 C-13.81837891 14.38058594 -13.81837891 14.38058594 -15 15 C-15.99 14.67 -16.98 14.34 -18 14 C-14.0949151 10.44992282 -11.02265357 9.18180084 -6 8 C-6 7.34 -6 6.68 -6 6 C-5.01 5.67 -4.02 5.34 -3 5 C-2.54625 4.154375 -2.0925 3.30875 -1.625 2.4375 C-1.08875 1.633125 -0.5525 0.82875 0 0 Z " fill="#6D0C0B" transform="translate(546,410)"/>
<path d="M0 0 C0.33 0 0.66 0 1 0 C0.93433838 0.57540527 0.86867676 1.15081055 0.80102539 1.74365234 C0.05156516 8.69869831 -0.3035011 15.63627546 -0.5625 22.625 C-0.60568359 23.72457031 -0.64886719 24.82414062 -0.69335938 25.95703125 C-0.79826406 28.63792882 -0.90042726 31.31890001 -1 34 C-1.33 34 -1.66 34 -2 34 C-5.25686873 9.57348452 -5.25686873 9.57348452 0 0 Z " fill="#D5272F" transform="translate(403,326)"/>
<path d="M0 0 C0.33 0.99 0.66 1.98 1 3 C1.99 3.33 2.98 3.66 4 4 C3.67 4.99 3.34 5.98 3 7 C0.42923543 7.07345042 -1.80476282 7.04749013 -4.3125 6.4375 C-8.0563139 5.82804192 -11.25447419 6.4286486 -15 7 C-12.49484216 4.49484216 -10.38931835 3.94900914 -7 3 C-5.68 3 -4.36 3 -3 3 C-3 2.34 -3 1.68 -3 1 C-2.01 0.67 -1.02 0.34 0 0 Z " fill="#D9262A" transform="translate(535,423)"/>
<path d="M0 0 C0.66 0 1.32 0 2 0 C7.52687201 13.04626441 5.99090707 26.18650611 5 40 C4.67 40 4.34 40 4 40 C3.98541748 39.35675781 3.97083496 38.71351563 3.95581055 38.05078125 C3.62863179 25.08386646 2.95970546 12.65785984 0 0 Z " fill="#D22830" transform="translate(574,320)"/>
<path d="M0 0 C3.56234868 4.41294512 5.25291035 9.24337474 7.25 14.5 C7.81460938 15.92505859 7.81460938 15.92505859 8.390625 17.37890625 C8.74125 18.29542969 9.091875 19.21195312 9.453125 20.15625 C9.77442383 20.98962891 10.09572266 21.82300781 10.42675781 22.68164062 C11.05291871 25.21401877 10.85529695 26.56709313 10 29 C9.49384702 27.73160474 8.99530901 26.46016898 8.5 25.1875 C8.2215625 24.47980469 7.943125 23.77210938 7.65625 23.04296875 C7 21 7 21 7 18 C6.01 18 5.02 18 4 18 C3.67 14.7 3.34 11.4 3 8 C2.34 8 1.68 8 1 8 C0.67 5.36 0.34 2.72 0 0 Z " fill="#E59396" transform="translate(675,259)"/>
<path d="M0 0 C2.97 0.33 5.94 0.66 9 1 C8.01 1.33 7.02 1.66 6 2 C6 2.66 6 3.32 6 4 C6.66 4 7.32 4 8 4 C8 5.98 8 7.96 8 10 C5.5625 9.25 5.5625 9.25 3 8 C2.375 5.9375 2.375 5.9375 2 4 C1.01 3.67 0.02 3.34 -1 3 C-0.67 2.01 -0.34 1.02 0 0 Z " fill="#5B626A" transform="translate(579,693)"/>
<path d="M0 0 C1.485 0.99 1.485 0.99 3 2 C3 2.66 3 3.32 3 4 C3.66 4 4.32 4 5 4 C5.33 5.32 5.66 6.64 6 8 C6.66 8 7.32 8 8 8 C11.08284263 11.87036007 13.53198701 16.00786149 14 21 C13.01 20.67 12.02 20.34 11 20 C11 18.35 11 16.7 11 15 C10.01 15 9.02 15 8 15 C7.67 13.35 7.34 11.7 7 10 C6.34 10 5.68 10 5 10 C5 9.34 5 8.68 5 8 C4.01 8 3.02 8 2 8 C1.34 5.36 0.68 2.72 0 0 Z " fill="#7C0E11" transform="translate(555,288)"/>
<path d="M0 0 C2 3 2 3 3 5.0625 C3.95925017 7.16194362 3.95925017 7.16194362 6 9 C6.8167781 10.76222671 7.55895135 12.55978067 8.25 14.375 C8.62640625 15.33148438 9.0028125 16.28796875 9.390625 17.2734375 C10.10609852 20.47472287 9.56257994 21.24600799 8 24 C6.65533814 20.75457277 5.3262825 17.50297666 4 14.25 C3.6184375 13.32960938 3.236875 12.40921875 2.84375 11.4609375 C2.4828125 10.57148438 2.121875 9.68203125 1.75 8.765625 C1.41484375 7.94868164 1.0796875 7.13173828 0.734375 6.29003906 C0 4 0 4 0 0 Z " fill="#E47A7B" transform="translate(295,405)"/>
<path d="M0 0 C1.26977059 3.80931176 0.52074507 5.81618993 -0.4375 9.6875 C-0.72496094 10.86699219 -1.01242187 12.04648437 -1.30859375 13.26171875 C-1.53675781 14.16535156 -1.76492188 15.06898438 -2 16 C-2.66 16 -3.32 16 -4 16 C-4.33 17.32 -4.66 18.64 -5 20 C-5.66 20 -6.32 20 -7 20 C-6.125 15.125 -6.125 15.125 -5 14 C-4.76924918 12.65252916 -4.58846937 11.29622435 -4.4375 9.9375 C-4.2209375 7.9884375 -4.2209375 7.9884375 -4 6 C-3.01 5.67 -2.02 5.34 -1 5 C-0.67 3.35 -0.34 1.7 0 0 Z " fill="#D34547" transform="translate(520,694)"/>
<path d="M0 0 C0.99 0.33 1.98 0.66 3 1 C2.154375 1.886875 1.30875 2.77375 0.4375 3.6875 C-4.02994637 8.84798698 -6.92573781 14.95152556 -10 21 C-10.94604983 17.55783409 -11.17741032 15.44813022 -10 12 C-8.37446717 10.29319053 -6.70884005 8.62339805 -5 7 C-4.67 6.01 -4.34 5.02 -4 4 C-3.34 4 -2.68 4 -2 4 C-2 3.34 -2 2.68 -2 2 C-1.34 2 -0.68 2 0 2 C0 1.34 0 0.68 0 0 Z " fill="#D02631" transform="translate(421,288)"/>
<path d="M0 0 C1.23104155 3.68400584 0.90767252 6.91474976 0.5625 10.75 C0.46066406 11.92046875 0.35882813 13.0909375 0.25390625 14.296875 C0.17011719 15.18890625 0.08632813 16.0809375 0 17 C-0.66 17 -1.32 17 -2 17 C-2 17.66 -2 18.32 -2 19 C-2.66 19 -3.32 19 -4 19 C-4.33 19.66 -4.66 20.32 -5 21 C-4.42351925 13.64987044 -2.28953836 6.98575424 0 0 Z " fill="#D84C50" transform="translate(296,279)"/>
<path d="M0 0 C0.33 0 0.66 0 1 0 C2.42258812 3.82320557 3.24042276 6.91281305 3 11 C2.34 11 1.68 11 1 11 C1 9.68 1 8.36 1 7 C-0.32 7 -1.64 7 -3 7 C-2.67 8.98 -2.34 10.96 -2 13 C-3.32 13.99 -4.64 14.98 -6 16 C-5.65176183 9.49955416 -4.05312199 5.14856037 0 0 Z " fill="#650B11" transform="translate(413,304)"/>
<path d="M0 0 C5.29313319 1.51232377 10.39577756 3.37490873 13.375 8.25 C13.58125 8.8275 13.7875 9.405 14 10 C11.07120629 9.37240135 8.63904371 8.41377341 6 7 C6 7.66 6 8.32 6 9 C5.01 9 4.02 9 3 9 C3.0928125 7.6078125 3.0928125 7.6078125 3.1875 6.1875 C3.30894264 3.01604897 3.30894264 3.01604897 1.5 1.125 C1.005 0.75375 0.51 0.3825 0 0 Z " fill="#DB4248" transform="translate(624,196)"/>
<path d="M0 0 C2.97 0.495 2.97 0.495 6 1 C5.875 2.75 5.875 2.75 5 5 C1.9375 7.25 1.9375 7.25 -1 9 C-2.32 8.34 -3.64 7.68 -5 7 C-3.74458443 4.48916886 -2.49936512 4.12874554 0 3 C0 2.01 0 1.02 0 0 Z " fill="#60676D" transform="translate(391,697)"/>
<path d="M0 0 C0.33 0 0.66 0 1 0 C2.68944836 9.08078495 3.24908976 17.76984056 3 27 C2.67 27 2.34 27 2 27 C2 24.36 2 21.72 2 19 C1.34 19 0.68 19 0 19 C0 12.73 0 6.46 0 0 Z " fill="#DB6F76" transform="translate(691,309)"/>
<path d="M0 0 C0.66 0.99 1.32 1.98 2 3 C0.96132507 7.67403719 -1.23834652 11.13368513 -4 15 C-5.2380014 11.42355152 -4.74926071 8.66305234 -4 5 C-3.34 5 -2.68 5 -2 5 C-1.7834375 4.0409375 -1.7834375 4.0409375 -1.5625 3.0625 C-1 1 -1 1 0 0 Z " fill="#E35B66" transform="translate(660,454)"/>
<path d="M0 0 C0.33 0 0.66 0 1 0 C1.05392397 2.77109307 1.09363455 5.54113818 1.125 8.3125 C1.14175781 9.09818359 1.15851563 9.88386719 1.17578125 10.69335938 C1.18222656 11.45068359 1.18867188 12.20800781 1.1953125 12.98828125 C1.20578613 13.68477783 1.21625977 14.38127441 1.22705078 15.09887695 C1 17 1 17 -1 20 C-1.66 20 -2.32 20 -3 20 C-2.51358785 13.15182898 -1.64006048 6.66957927 0 0 Z " fill="#E26A72" transform="translate(290,300)"/>
<path d="M0 0 C2.475 0.495 2.475 0.495 5 1 C5 1.33 5 1.66 5 2 C6.65 2.33 8.3 2.66 10 3 C10 4.32 10 5.64 10 7 C7.36 7.33 4.72 7.66 2 8 C1 5 1 5 2 2 C1.34 2 0.68 2 0 2 C0 1.34 0 0.68 0 0 Z " fill="#3B444D" transform="translate(585,695)"/>
<path d="M0 0 C3.6132946 3.17341525 5.3230578 6.37058591 7.25 10.75 C7.77078125 11.92046875 8.2915625 13.0909375 8.828125 14.296875 C9.21484375 15.18890625 9.6015625 16.0809375 10 17 C9.01 17 8.02 17 7 17 C5.63319847 14.73595458 4.28155555 12.46498979 2.9375 10.1875 C2.54755859 9.54490234 2.15761719 8.90230469 1.75585938 8.24023438 C0.75869241 6.5371085 -0.12812687 4.77054142 -1 3 C-0.67 2.01 -0.34 1.02 0 0 Z " fill="#D25D60" transform="translate(421,613)"/>
<path d="M0 0 C11.52164009 0.96355353 11.52164009 0.96355353 17 2 C15.5 3.5625 15.5 3.5625 13 5 C8.20398432 4.7716183 4.37445805 4.05052721 0 2 C0 1.34 0 0.68 0 0 Z " fill="#9B9DA0" transform="translate(539,683)"/>
<path d="M0 0 C0.99 0 1.98 0 3 0 C3.268125 0.78375 3.53625 1.5675 3.8125 2.375 C4.84814432 5.28114923 4.84814432 5.28114923 8 7 C9.1577506 10.47325181 9.06866652 13.36067448 9 17 C8.67 17 8.34 17 8 17 C8 15.02 8 13.04 8 11 C6.68 11 5.36 11 4 11 C3.32880451 9.5437455 2.66318193 8.08492133 2 6.625 C1.62875 5.81289063 1.2575 5.00078125 0.875 4.1640625 C0 2 0 2 0 0 Z " fill="#D42832" transform="translate(443,658)"/>
<path d="M0 0 C0.99 0.33 1.98 0.66 3 1 C1.55797524 5.15151338 -0.5010438 8.29978445 -3.125 11.8125 C-4.21167969 13.27623047 -4.21167969 13.27623047 -5.3203125 14.76953125 C-6.15175781 15.87361328 -6.15175781 15.87361328 -7 17 C-7.33 15.68 -7.66 14.36 -8 13 C-7.34 13 -6.68 13 -6 13 C-5.67 12.01 -5.34 11.02 -5 10 C-4.67 9.01 -4.34 8.02 -4 7 C-3.34 7 -2.68 7 -2 7 C-2 5.68 -2 4.36 -2 3 C-1.34 3 -0.68 3 0 3 C0 2.01 0 1.02 0 0 Z " fill="#D97275" transform="translate(634,495)"/>
<path d="M0 0 C0 0.99 0 1.98 0 3 C0.33 3.33 0.66 3.66 1 4 C1.33 4.99 1.66 5.98 2 7 C-2 9 -6 11 -10 13 C-8.48446596 9.52224821 -6.4226544 7.0442016 -3.875 4.25 C-3.15054687 3.45078125 -2.42609375 2.6515625 -1.6796875 1.828125 C-0.84824219 0.92320312 -0.84824219 0.92320312 0 0 Z " fill="#E16A6D" transform="translate(339,208)"/>
<path d="M0 0 C4.79077635 -0.28773432 8.00617556 0.55830025 12.375 2.5 C13.43460938 2.9640625 14.49421875 3.428125 15.5859375 3.90625 C16.38257813 4.2671875 17.17921875 4.628125 18 5 C18 5.33 18 5.66 18 6 C16.00045254 6.04254356 13.99958364 6.04080783 12 6 C11.67 5.67 11.34 5.34 11 5 C8.32941149 4.85884839 5.67567762 4.95752893 3 5 C3.33 4.01 3.66 3.02 4 2 C2.68 1.67 1.36 1.34 0 1 C0 0.67 0 0.34 0 0 Z " fill="#D75C5E" transform="translate(555,154)"/>
<path d="M0 0 C2.14453125 0.3671875 2.14453125 0.3671875 4 1 C3.43152344 1.43570312 2.86304688 1.87140625 2.27734375 2.3203125 C-2.60493318 6.08594179 -7.35371085 9.94685415 -12 14 C-12 12.68 -12 11.36 -12 10 C-10.64453125 8.69140625 -10.64453125 8.69140625 -8.8125 7.5625 C-6.17926074 5.85832701 -4.51034279 4.47618066 -2.3125 2.125 C-1.549375 1.42375 -0.78625 0.7225 0 0 Z " fill="#CD2930" transform="translate(436,274)"/>
<path d="M0 0 C0.66 0.33 1.32 0.66 2 1 C1.38125 1.7425 0.7625 2.485 0.125 3.25 C-1.99270151 5.78563191 -1.99270151 5.78563191 -3 8.125 C-4.25047564 10.46964183 -5.81248236 11.54165491 -8 13 C-8.66 12.67 -9.32 12.34 -10 12 C-9.49452628 7.91944849 -7.49911118 6.33727705 -4.4375 3.75 C-3.61121094 3.04359375 -2.78492188 2.3371875 -1.93359375 1.609375 C-1.29550781 1.07828125 -0.65742188 0.5471875 0 0 Z " fill="#DD666A" transform="translate(362,186)"/>
<path d="M0 0 C0.66 0 1.32 0 2 0 C1.814375 0.78375 1.62875 1.5675 1.4375 2.375 C0.74037734 4.97089775 0.74037734 4.97089775 2 7 C0.375 7.75 0.375 7.75 -2 8 C-5.25 6.0625 -5.25 6.0625 -8 4 C-7.34 3.34 -6.68 2.68 -6 2 C-3.375 2.375 -3.375 2.375 -1 3 C-0.67 2.01 -0.34 1.02 0 0 Z " fill="#515863" transform="translate(365,802)"/>
<path d="M0 0 C0.33 0.99 0.66 1.98 1 3 C0.1028125 3.1546875 0.1028125 3.1546875 -0.8125 3.3125 C-3.08110966 3.84018987 -3.08110966 3.84018987 -4.5625 5.5625 C-5.036875 6.036875 -5.51125 6.51125 -6 7 C-6.99 7 -7.98 7 -9 7 C-9 7.66 -9 8.32 -9 9 C-9.66 9 -10.32 9 -11 9 C-11.66 7.35 -12.32 5.7 -13 4 C-12.01 3.67 -11.02 3.34 -10 3 C-9.67 3.33 -9.34 3.66 -9 4 C-8.566875 3.525625 -8.13375 3.05125 -7.6875 2.5625 C-5.20984394 0.26837402 -3.33340345 0 0 0 Z " fill="#37404A" transform="translate(396,695)"/>
<path d="M0 0 C0.66 0 1.32 0 2 0 C0.54144353 3.68646141 -1.30229045 5.16143971 -4.625 7.25 C-5.44226563 7.77078125 -6.25953125 8.2915625 -7.1015625 8.828125 C-8.04128906 9.40820312 -8.04128906 9.40820312 -9 10 C-9.66 8.68 -10.32 7.36 -11 6 C-7.3321148 4.03810791 -4.12751449 2.60698743 0 2 C0 1.34 0 0.68 0 0 Z " fill="#62676C" transform="translate(632,796)"/>
<path d="M0 0 C0.66 0.33 1.32 0.66 2 1 C0.38405168 3.04119788 -1.2856382 5.04072937 -3 7 C-3.66 7 -4.32 7 -5 7 C-5 6.34 -5 5.68 -5 5 C-5.99 5 -6.98 5 -8 5 C-8.33 5.99 -8.66 6.98 -9 8 C-9.99 7.34 -10.98 6.68 -12 6 C-10.04669132 4.96958487 -8.08718472 3.9509107 -6.125 2.9375 C-5.03445313 2.36902344 -3.94390625 1.80054688 -2.8203125 1.21484375 C-1.42425781 0.61349609 -1.42425781 0.61349609 0 0 Z " fill="#636972" transform="translate(377,700)"/>
<path d="M0 0 C0.99 0.33 1.98 0.66 3 1 C0.93899471 6.31522416 -1.5628909 10.44815281 -5 15 C-6.125 11.25 -6.125 11.25 -5 9 C-4.01 9 -3.02 9 -2 9 C-1.855625 7.700625 -1.71125 6.40125 -1.5625 5.0625 C-1.125 1.125 -1.125 1.125 0 0 Z " fill="#D3474C" transform="translate(589,561)"/>
<path d="M0 0 C0.33 0.66 0.66 1.32 1 2 C1.99 2.33 2.98 2.66 4 3 C4 4.98 4 6.96 4 9 C4.99 9 5.98 9 7 9 C7 10.98 7 12.96 7 15 C3.81994972 11.11327187 0.89445553 7.10047867 -2 3 C-1 1 -1 1 0 0 Z " fill="#DB646B" transform="translate(330,473)"/>
<path d="M0 0 C0.33 0.99 0.66 1.98 1 3 C1.66 3 2.32 3 3 3 C4.13764351 7.26616316 5 10.56486311 5 15 C4.34 15 3.68 15 3 15 C2.67 13.02 2.34 11.04 2 9 C1.34 9 0.68 9 0 9 C-0.87890625 2.84765625 -0.87890625 2.84765625 -1 1 C-0.67 0.67 -0.34 0.34 0 0 Z " fill="#D95359" transform="translate(684,285)"/>
<path d="M0 0 C0 0.99 0 1.98 0 3 C-2.70890512 4.35445256 -4.99005875 4 -8 4 C-10.26566343 4.43941523 -10.26566343 4.43941523 -12 5 C-12 4.01 -12 3.02 -12 2 C-7.8803623 0.70756464 -4.33168317 -0.26252625 0 0 Z " fill="#4C515C" transform="translate(418,689)"/>
<path d="M0 0 C0.89203125 0.00902344 1.7840625 0.01804687 2.703125 0.02734375 C3.37859375 0.03894531 4.0540625 0.05054688 4.75 0.0625 C4.42 1.0525 4.09 2.0425 3.75 3.0625 C1.44 3.3925 -0.87 3.7225 -3.25 4.0625 C-3.25 3.4025 -3.25 2.7425 -3.25 2.0625 C-7.705 2.5575 -7.705 2.5575 -12.25 3.0625 C-8.04248553 0.25749035 -5.00014586 -0.06579139 0 0 Z " fill="#787984" transform="translate(421.25,686.9375)"/>
<path d="M0 0 C1.2421875 1.578125 1.2421875 1.578125 2 4 C0.81301179 6.46941266 -0.35228523 8.50781483 -1.875 10.75 C-2.26558594 11.35199219 -2.65617188 11.95398438 -3.05859375 12.57421875 C-4.02479188 14.05886465 -5.01057788 15.53072939 -6 17 C-7.60031344 13.79937313 -6.03173691 11.27728194 -5 8 C-4.01 8 -3.02 8 -2 8 C-1.855625 7.236875 -1.71125 6.47375 -1.5625 5.6875 C-1 3 -1 3 0 0 Z " fill="#E07A7D" transform="translate(574,585)"/>
<path d="M0 0 C0 0.99 0 1.98 0 3 C0.33 3.99 0.66 4.98 1 6 C-0.65 6 -2.3 6 -4 6 C-4 5.34 -4 4.68 -4 4 C-4.99 4 -5.98 4 -7 4 C-7 4.99 -7 5.98 -7 7 C-7.66 7 -8.32 7 -9 7 C-8.3125 4.125 -8.3125 4.125 -7 1 C-2.81395349 -1.40697674 -2.81395349 -1.40697674 0 0 Z " fill="#E0252D" transform="translate(396,168)"/>
<path d="M0 0 C0.99 0 1.98 0 3 0 C5.19261408 4.28989712 6.87057581 8.32095691 8 13 C8.66 13 9.32 13 10 13 C9.67 14.32 9.34 15.64 9 17 C7.49462965 14.54481265 5.99555574 12.0861548 4.5 9.625 C4.07074219 8.92632813 3.64148438 8.22765625 3.19921875 7.5078125 C0 2.2265625 0 2.2265625 0 0 Z " fill="#E38286" transform="translate(409,595)"/>
<path d="M0 0 C10 11.53846154 10 11.53846154 10 18 C8.5 16.6875 8.5 16.6875 7 15 C7 14.01 7 13.02 7 12 C6.01 11.67 5.02 11.34 4 11 C0 4.94285714 0 4.94285714 0 0 Z " fill="#CA282E" transform="translate(408,382)"/>
<path d="M0 0 C4.455 0.99 4.455 0.99 9 2 C8.01 2.495 8.01 2.495 7 3 C7.99 5.31 8.98 7.62 10 10 C4.25 8.25 4.25 8.25 2 6 C2.33 5.34 2.66 4.68 3 4 C3.66 4 4.32 4 5 4 C5 3.34 5 2.68 5 2 C4.01 2.33 3.02 2.66 2 3 C2 2.34 2 1.68 2 1 C1.34 0.67 0.68 0.34 0 0 Z " fill="#747783" transform="translate(572,690)"/>
<path d="M0 0 C1.58294782 -0.05437607 3.16644256 -0.09296271 4.75 -0.125 C5.63171875 -0.14820313 6.5134375 -0.17140625 7.421875 -0.1953125 C10.1135858 0.00860498 11.69904974 0.63448279 14 2 C12.68 2 11.36 2 10 2 C10.33 2.99 10.66 3.98 11 5 C6.545 4.01 6.545 4.01 2 3 C2 2.34 2 1.68 2 1 C1.34 0.67 0.68 0.34 0 0 Z " fill="#56585C" transform="translate(550,686)"/>
<path d="M0 0 C0.99 0.33 1.98 0.66 3 1 C3 1.99 3 2.98 3 4 C3.64453125 4.23460937 4.2890625 4.46921875 4.953125 4.7109375 C7 6 7 6 7.609375 8.1640625 C7.65578125 8.97617187 7.7021875 9.78828125 7.75 10.625 C7.80671875 11.44226563 7.8634375 12.25953125 7.921875 13.1015625 C7.94765625 13.72804688 7.9734375 14.35453125 8 15 C5.31874582 12.61753661 3.88576541 10.1454496 2.3125 6.9375 C1.87550781 6.05964844 1.43851562 5.18179688 0.98828125 4.27734375 C0 2 0 2 0 0 Z " fill="#E07F83" transform="translate(429,630)"/>
<path d="M0 0 C1.67542976 0.28604898 3.34385343 0.61781233 5 1 C4.01 3.97 3.02 6.94 2 10 C1.34 10 0.68 10 0 10 C-0.19412181 8.52168779 -0.38012131 7.04230684 -0.5625 5.5625 C-0.66691406 4.73878906 -0.77132812 3.91507813 -0.87890625 3.06640625 C-0.91886719 2.38449219 -0.95882812 1.70257812 -1 1 C-0.67 0.67 -0.34 0.34 0 0 Z " fill="#DB4747" transform="translate(548,624)"/>
<path d="M0 0 C2 1.125 2 1.125 4 3 C4.25 6.1875 4.25 6.1875 4 9 C4.66 9 5.32 9 6 9 C6 9.99 6 10.98 6 12 C3.48087612 11.66411682 2.32803881 11.42645046 0.75 9.375 C-0.25295915 6.1989627 -0.12721966 3.30771122 0 0 Z " fill="#D94A52" transform="translate(304,425)"/>
<path d="M0 0 C3.40312738 1.05875074 6.01353231 2.00902154 9 4 C9 4.66 9 5.32 9 6 C10.65 6.33 12.3 6.66 14 7 C12.68 7.99 11.36 8.98 10 10 C9.01 9.01 8.02 8.02 7 7 C7.33 6.34 7.66 5.68 8 5 C7.05125 4.9175 6.1025 4.835 5.125 4.75 C2 4 2 4 0.625 1.9375 C0.41875 1.298125 0.2125 0.65875 0 0 Z " fill="#D5272E" transform="translate(583,166)"/>
<path d="M0 0 C2 0 2 0 4.125 1.875 C6 4 6 4 6 6 C8.31 6.33 10.62 6.66 13 7 C13.33 8.65 13.66 10.3 14 12 C8.24158222 9.34226872 3.67624765 6.2315832 0 1 C0 0.67 0 0.34 0 0 Z " fill="#6C0B0B" transform="translate(423,403)"/>
<path d="M0 0 C0.703125 1.74609375 0.703125 1.74609375 1 4 C-0.328125 6.03515625 -0.328125 6.03515625 -2.25 8.0625 C-2.87390625 8.73410156 -3.4978125 9.40570313 -4.140625 10.09765625 C-5.7492697 11.74347551 -7.36512126 13.38025902 -9 15 C-7.68448876 10.39571066 -5.90803514 6.81679612 -3 3 C-2.34 3 -1.68 3 -1 3 C-0.67 2.01 -0.34 1.02 0 0 Z " fill="#810C11" transform="translate(423,289)"/>
<path d="M0 0 C-1.11375 0.433125 -1.11375 0.433125 -2.25 0.875 C-4.89368604 1.89157921 -4.89368604 1.89157921 -6.84375 3.03125 C-9.3714424 4.16687992 -11.49416304 4.40743392 -14.25 4.625 C-15.14203125 4.69976562 -16.0340625 4.77453125 -16.953125 4.8515625 C-17.62859375 4.90054688 -18.3040625 4.94953125 -19 5 C-18 3 -18 3 -14.98046875 1.89453125 C-13.10294922 1.35892578 -13.10294922 1.35892578 -11.1875 0.8125 C-9.32158203 0.26529297 -9.32158203 0.26529297 -7.41796875 -0.29296875 C-4.33098114 -0.93153419 -2.86705078 -1.13382109 0 0 Z " fill="#D12934" transform="translate(442,150)"/>
<path d="M0 0 C4.62 0 9.24 0 14 0 C13.01 0.495 13.01 0.495 12 1 C12 1.66 12 2.32 12 3 C7.47907032 4.45606519 4.48351204 3.27032841 0 2 C0 1.34 0 0.68 0 0 Z " fill="#E5241E" transform="translate(516,150)"/>
<path d="M0 0 C1.0625 1.8125 1.0625 1.8125 2 4 C1.67 4.99 1.34 5.98 1 7 C0.2575 6.95875 -0.485 6.9175 -1.25 6.875 C-4.11960046 7.00543638 -5.52093306 7.6545235 -8 9 C-7.04270084 7.87411986 -6.08412105 6.7493285 -5.125 5.625 C-4.59132813 4.99851562 -4.05765625 4.37203125 -3.5078125 3.7265625 C-2.38567993 2.44163349 -1.20628025 1.20628025 0 0 Z " fill="#656E75" transform="translate(604,758)"/>
<path d="M0 0 C4.03990076 2.07454363 6.07618236 3.86379208 8 8 C8.6875 11.3125 8.6875 11.3125 9 14 C6.53522288 11.69806101 4.68244803 9.24011346 2.8125 6.4375 C2.28269531 5.65246094 1.75289063 4.86742187 1.20703125 4.05859375 C0 2 0 2 0 0 Z " fill="#DB6D70" transform="translate(395,573)"/>
<path d="M0 0 C1.65 0 3.3 0 5 0 C5 0.66 5 1.32 5 2 C6.65 2 8.3 2 10 2 C10 2.66 10 3.32 10 4 C11.32 4.66 12.64 5.32 14 6 C8.94744036 5.36843005 4.70406799 3.86540627 0 2 C0 1.34 0 0.68 0 0 Z " fill="#700C0A" transform="translate(450,424)"/>
<path d="M0 0 C-1.78614318 1.03046722 -3.57910018 2.04913236 -5.375 3.0625 C-6.87160156 3.91521484 -6.87160156 3.91521484 -8.3984375 4.78515625 C-9.25695312 5.18605469 -10.11546875 5.58695312 -11 6 C-11.66 5.67 -12.32 5.34 -13 5 C-12.34 4.01 -11.68 3.02 -11 2 C-10.34 2 -9.68 2 -9 2 C-9 1.34 -9 0.68 -9 0 C-5.5657338 -0.85856655 -3.38317487 -0.97591583 0 0 Z " fill="#D1282E" transform="translate(453,267)"/>
<path d="M0 0 C1.98 0.66 3.96 1.32 6 2 C5.67 2.66 5.34 3.32 5 4 C-0.61 4 -6.22 4 -12 4 C-12 3.34 -12 2.68 -12 2 C-8.04 2.33 -4.08 2.66 0 3 C0 2.01 0 1.02 0 0 Z " fill="#CC494F" transform="translate(495,745)"/>
<path d="M0 0 C0 1.32 0 2.64 0 4 C-1.11375 3.79375 -2.2275 3.5875 -3.375 3.375 C-4.57125 3.25125 -5.7675 3.1275 -7 3 C-7.66 3.66 -8.32 4.32 -9 5 C-11.625 4.625 -11.625 4.625 -14 4 C-11.37350692 2.24900461 -9.38191413 1.30690675 -6.4375 0.3125 C-5.65246094 0.04050781 -4.86742187 -0.23148438 -4.05859375 -0.51171875 C-2 -1 -2 -1 0 0 Z " fill="#38404A" transform="translate(568,785)"/>
<path d="M0 0 C0.99 0.33 1.98 0.66 3 1 C3.33 2.65 3.66 4.3 4 6 C4.99 6 5.98 6 7 6 C7.12375 6.969375 7.2475 7.93875 7.375 8.9375 C7.684375 10.4534375 7.684375 10.4534375 8 12 C8.66 12.33 9.32 12.66 10 13 C9.01 13 8.02 13 7 13 C5.17578125 10.6640625 5.17578125 10.6640625 3.3125 7.625 C2.68988281 6.62726562 2.06726563 5.62953125 1.42578125 4.6015625 C0 2 0 2 0 0 Z " fill="#DF8588" transform="translate(380,550)"/>
<path d="M0 0 C-0.49230769 6.4 -0.49230769 6.4 -3.0625 9.4375 C-3.701875 9.953125 -4.34125 10.46875 -5 11 C-5.36717663 3.5340751 -5.36717663 3.5340751 -3.625 1 C-2 0 -2 0 0 0 Z " fill="#E35356" transform="translate(617,522)"/>
<path d="M0 0 C0.99 0 1.98 0 3 0 C2.39254603 4.85963179 0.27241033 8.7405518 -2 13 C-2.33 13 -2.66 13 -3 13 C-2.52060632 8.28596212 -2.03165952 4.33420699 0 0 Z " fill="#DD7375" transform="translate(674,427)"/>
<path d="M0 0 C0.33 0 0.66 0 1 0 C1.50744423 1.89385437 2.00564574 3.79018666 2.5 5.6875 C2.7784375 6.74324219 3.056875 7.79898437 3.34375 8.88671875 C3.9391715 11.71142672 4.12786492 14.12836708 4 17 C3.01 16.67 2.02 16.34 1 16 C0.08342019 10.61509359 -0.11138159 5.45769811 0 0 Z " fill="#CE242D" transform="translate(403,362)"/>
<path d="M0 0 C1.32 0.33 2.64 0.66 4 1 C4 1.99 4 2.98 4 4 C4.99 4.33 5.98 4.66 7 5 C8.75 8.4375 8.75 8.4375 10 12 C9.67 12.66 9.34 13.32 9 14 C7.49717827 11.85609361 5.99764203 9.71001973 4.5 7.5625 C4.07074219 6.95083984 3.64148438 6.33917969 3.19921875 5.70898438 C0 1.11328125 0 1.11328125 0 0 Z " fill="#DF8A8A" transform="translate(358,519)"/>
<path d="M0 0 C2.63998971 1.31999485 2.70014976 2.36913312 3.625 5.125 C4.94626532 9.27470263 5.27625262 12.67204229 5 17 C3.00080524 14.00120785 2.08799975 11.40906589 1 8 C0.67 7.34 0.34 6.68 0 6 C-0.039992 4.00039988 -0.04346799 1.99952758 0 0 Z " fill="#740C0B" transform="translate(569,309)"/>
<path d="M0 0 C1.1174495 3.81862239 0.76882044 5.37812958 -1 9 C-2.29322113 11.36025149 -3.63502053 13.6795349 -5 16 C-6.39211215 11.82366356 -4.9535579 10.21039485 -3.0625 6.3125 C-2.49660156 5.13300781 -1.93070312 3.95351563 -1.34765625 2.73828125 C-0.90292969 1.83464844 -0.45820313 0.93101562 0 0 Z " fill="#E69E9D" transform="translate(305,257)"/>
<path d="M0 0 C1.6875 1.3125 1.6875 1.3125 3 3 C3 3.99 3 4.98 3 6 C3.66 6.33 4.32 6.66 5 7 C2.125 6.6875 2.125 6.6875 -1 6 C-1.66 5.01 -2.32 4.02 -3 3 C-5.56282742 2.27034634 -5.56282742 2.27034634 -8 2 C-8 1.67 -8 1.34 -8 1 C-5.23735711 0.40267181 -2.83967231 0 0 0 Z " fill="#3C434A" transform="translate(375,809)"/>
<path d="M0 0 C2.17723742 2.17723742 2.41899846 3.00485979 3.0703125 5.9140625 C3.24433594 6.67460938 3.41835938 7.43515625 3.59765625 8.21875 C3.77167969 9.0128125 3.94570313 9.806875 4.125 10.625 C4.30675781 11.42679688 4.48851562 12.22859375 4.67578125 13.0546875 C5.12370789 15.03499476 5.56270604 17.0173177 6 19 C5.01 18.67 4.02 18.34 3 18 C2.49645133 15.56318413 1.99703244 13.12564561 1.5 10.6875 C1.35691406 9.99720703 1.21382813 9.30691406 1.06640625 8.59570312 C0.47374956 5.67475227 0 2.98891878 0 0 Z " fill="#D9282F" transform="translate(468,720)"/>
<path d="M0 0 C-0.99 0 -1.98 0 -3 0 C-3 0.99 -3 1.98 -3 3 C-2.01 3 -1.02 3 0 3 C0.33 2.34 0.66 1.68 1 1 C1.99 1.66 2.98 2.32 4 3 C-0.455 4.485 -0.455 4.485 -5 6 C-5.66 4.02 -6.32 2.04 -7 0 C-3.86650268 -1.04449911 -3.01031744 -0.93423645 0 0 Z " fill="#787E84" transform="translate(409,691)"/>
<path d="M0 0 C2.475 0.99 2.475 0.99 5 2 C5 2.66 5 3.32 5 4 C4.34 4 3.68 4 3 4 C3 6.31 3 8.62 3 11 C2.34 10.67 1.68 10.34 1 10 C1 8.35 1 6.7 1 5 C0.34 5 -0.32 5 -1 5 C-0.67 3.35 -0.34 1.7 0 0 Z " fill="#DB252B" transform="translate(442,648)"/>
<path d="M0 0 C1.11491267 3.34473801 0.80511271 5.60063522 0 9 C0 9.66 0 10.32 0 11 C-0.66 11 -1.32 11 -2 11 C-2 10.34 -2 9.68 -2 9 C-2.66 9 -3.32 9 -4 9 C-3.67 6.36 -3.34 3.72 -3 1 C-2.01 0.67 -1.02 0.34 0 0 Z " fill="#E02629" transform="translate(565,594)"/>
<path d="M0 0 C0.33 0.66 0.66 1.32 1 2 C0.02501855 3.5027237 -0.95509389 5.00211963 -1.9375 6.5 C-2.75541016 7.75296875 -2.75541016 7.75296875 -3.58984375 9.03125 C-4.05519531 9.6809375 -4.52054688 10.330625 -5 11 C-5.33 11 -5.66 11 -6 11 C-6 9.02 -6 7.04 -6 5 C-5.34 5 -4.68 5 -4 5 C-3.896875 4.360625 -3.79375 3.72125 -3.6875 3.0625 C-3.460625 2.381875 -3.23375 1.70125 -3 1 C-2.01 0.67 -1.02 0.34 0 0 Z " fill="#E16E73" transform="translate(582,576)"/>
<path d="M0 0 C2.475 0.99 2.475 0.99 5 2 C5 3.32 5 4.64 5 6 C5.99 6.33 6.98 6.66 8 7 C8 8.65 8 10.3 8 12 C4.74451247 8.97704729 2.31022942 5.79537691 0 2 C0 1.34 0 0.68 0 0 Z " fill="#E07881" transform="translate(371,537)"/>
<path d="M0 0 C0.99 0.33 1.98 0.66 3 1 C1.77472971 5.05281712 0.30119506 8.44360764 -2 12 C-3.15941038 8.52176885 -2.70820884 6.54104422 -2 3 C-1.34 3 -0.68 3 0 3 C0 2.01 0 1.02 0 0 Z " fill="#E16F75" transform="translate(665,445)"/>
<path d="M0 0 C6.04801071 0.54981916 11.30601106 1.90429574 17 4 C17 4.33 17 4.66 17 5 C12.8649837 5.08107875 8.99780058 5.14222874 5 4 C4.34 3.34 3.68 2.68 3 2 C2.01 1.34 1.02 0.68 0 0 Z " fill="#E98A8E" transform="translate(535,147)"/>
<path d="M0 0 C5.28137429 0.51525603 8.57221156 2.25477117 13 5 C10.37831399 5.97099482 9.20307562 6.06599958 6.5 5.1875 C4.31829532 4.15119028 2.14423532 3.11182572 0 2 C0 1.34 0 0.68 0 0 Z " fill="#6F7279" transform="translate(609,705)"/>
<path d="M0 0 C0.66 1.32 1.32 2.64 2 4 C2.66 4 3.32 4 4 4 C5.20272819 6.40545638 5.10071472 7.94996953 5.0625 10.625 C5.05347656 11.44226563 5.04445313 12.25953125 5.03515625 13.1015625 C5.02355469 13.72804688 5.01195312 14.35453125 5 15 C3.6401621 12.3571846 2.43439903 9.71440958 1.375 6.9375 C1.11460937 6.26589844 0.85421875 5.59429688 0.5859375 4.90234375 C0 3 0 3 0 0 Z " fill="#E08587" transform="translate(457,692)"/>
<path d="M0 0 C0.66 0.66 1.32 1.32 2 2 C1.71202618 6.99154626 0.43490415 10.65951869 -2 15 C-2.33 15 -2.66 15 -3 15 C-3 12.36 -3 9.72 -3 7 C-2.01 7 -1.02 7 0 7 C0 4.69 0 2.38 0 0 Z " fill="#D85A5B" transform="translate(687,390)"/>
<path d="M0 0 C3.12777365 1.56388683 3.67121756 3.82247677 5 7 C5.50966514 9.67814608 5.76524946 12.27689379 6 15 C2.17354053 12.32147837 1.53180354 9.65189384 0.75 5.25 C0.48463689 3.50226363 0.22967506 1.75278332 0 0 Z " fill="#DE656A" transform="translate(670,250)"/>
<path d="M0 0 C1.65 0.33 3.3 0.66 5 1 C3.70700306 3.88437779 2.34058637 5.87219421 0 8 C-0.66 7.67 -1.32 7.34 -2 7 C-1.34 4.69 -0.68 2.38 0 0 Z " fill="#E46264" transform="translate(503,739)"/>
<path d="M0 0 C0.33 0.66 0.66 1.32 1 2 C0.00390625 4.6015625 0.00390625 4.6015625 -1.4375 7.625 C-1.91058594 8.62789062 -2.38367188 9.63078125 -2.87109375 10.6640625 C-3.24363281 11.43492187 -3.61617187 12.20578125 -4 13 C-4.33 13 -4.66 13 -5 13 C-5 10.36 -5 7.72 -5 5 C-4.01 5 -3.02 5 -2 5 C-2 3.68 -2 2.36 -2 1 C-1.34 0.67 -0.68 0.34 0 0 Z " fill="#E07C7C" transform="translate(538,654)"/>
<path d="M0 0 C0.33 0 0.66 0 1 0 C1.25 6.625 1.25 6.625 -1 10 C-4 4.25 -4 4.25 -4 2 C-2.68 2 -1.36 2 0 2 C0 1.34 0 0.68 0 0 Z " fill="#DF6365" transform="translate(317,446)"/>
<path d="M0 0 C2.99220268 1.36370299 5.29026529 2.94908083 7.75 5.125 C8.67039062 5.93324219 8.67039062 5.93324219 9.609375 6.7578125 C10.06828125 7.16773438 10.5271875 7.57765625 11 8 C10.67 8.66 10.34 9.32 10 10 C5.38542302 7.43634612 1.71543619 5.14630856 0 0 Z " fill="#E68F95" transform="translate(621,190)"/>
<path d="M0 0 C1.9375 0.8125 1.9375 0.8125 4 2 C4.33 2.99 4.66 3.98 5 5 C7.00016466 6.20882096 7.00016466 6.20882096 9 7 C7.25 7.75 7.25 7.75 5 8 C1.99535358 5.68212991 0.53895377 3.7726764 0 0 Z " fill="#CF5E5F" transform="translate(472,739)"/>
<path d="M0 0 C0.66 0 1.32 0 2 0 C2 0.66 2 1.32 2 2 C3.32 2.66 4.64 3.32 6 4 C5.67 5.32 5.34 6.64 5 8 C3.02 6.68 1.04 5.36 -1 4 C-0.34 3.67 0.32 3.34 1 3 C0.67 2.01 0.34 1.02 0 0 Z " fill="#5D656C" transform="translate(594,704)"/>
<path d="M0 0 C0 0.99 0 1.98 0 3 C-2.31 3.33 -4.62 3.66 -7 4 C-7 3.67 -7 3.34 -7 3 C-8.65 2.67 -10.3 2.34 -12 2 C-12 1.67 -12 1.34 -12 1 C-7.93631321 0.22596442 -4.13574827 -0.0984702 0 0 Z " fill="#B0B0B0" transform="translate(441,683)"/>
<path d="M0 0 C0.66 0 1.32 0 2 0 C1.41196203 3.02419525 0.77321882 6.01758453 0 9 C-0.99 9 -1.98 9 -3 9 C-3.33 7.68 -3.66 6.36 -4 5 C-3.34 5 -2.68 5 -2 5 C-1.34 3.35 -0.68 1.7 0 0 Z " fill="#E1242F" transform="translate(572,584)"/>
<path d="M0 0 C0.66 0 1.32 0 2 0 C2 0.99 2 1.98 2 3 C2.804375 3.2475 3.60875 3.495 4.4375 3.75 C7 5 7 5 7.8125 7.125 C7.874375 7.74375 7.93625 8.3625 8 9 C5.6875 8.4375 5.6875 8.4375 3 7 C1.65223022 4.72037377 0.88635784 2.51912228 0 0 Z " fill="#D4494E" transform="translate(354,511)"/>
<path d="M0 0 C3.80881639 1.44472346 5.29742886 3.32603071 7 7 C6.67 7.99 6.34 8.98 6 10 C5.67 9.01 5.34 8.02 5 7 C4.34 7 3.68 7 3 7 C0.70351351 4.4385343 0 3.52032428 0 0 Z " fill="#720A0B" transform="translate(416,393)"/>
<path d="M0 0 C1 2 1 2 0.25 4.4375 C-0.94131051 6.87968654 -1.88488303 8.3255324 -4 10 C-4.66 10 -5.32 10 -6 10 C-4.79157144 5.56909529 -3.48331435 3.01887244 0 0 Z " fill="#D55F66" transform="translate(315,242)"/>
<path d="M0 0 C2.66666667 2.66666667 5.33333333 5.33333333 8 8 C7.67 8.66 7.34 9.32 7 10 C6.34 9.34 5.68 8.68 5 8 C4.01 8.495 4.01 8.495 3 9 C0 2.25 0 2.25 0 0 Z " fill="#DF7272" transform="translate(646,215)"/>
<path d="M0 0 C1.98 0.66 3.96 1.32 6 2 C3.14521674 3.90318884 1.58058692 4.4619099 -1.6875 5.125 C-2.49574219 5.29257812 -3.30398438 5.46015625 -4.13671875 5.6328125 C-4.75160156 5.75398437 -5.36648438 5.87515625 -6 6 C-5.01 5.01 -4.02 4.02 -3 3 C-2.34 3.33 -1.68 3.66 -1 4 C-0.67 2.68 -0.34 1.36 0 0 Z " fill="#6B6F78" transform="translate(582,820)"/>
<path d="M0 0 C3.70344028 1.23448009 5.30250982 3.23334341 8 6 C8.66 6.33 9.32 6.66 10 7 C10 7.66 10 8.32 10 9 C10.66 9.33 11.32 9.66 12 10 C11.01 10 10.02 10 9 10 C9 9.34 9 8.68 9 8 C8.2575 7.71125 7.515 7.4225 6.75 7.125 C4.43260203 6.17697356 2.22082885 5.15154089 0 4 C0 2.68 0 1.36 0 0 Z " fill="#C92A2C" transform="translate(428,410)"/>
<path d="M0 0 C1.0326802 2.78823655 1.04509293 3.8677274 0.0625 6.75 C-0.288125 7.4925 -0.63875 8.235 -1 9 C-1.99 8.67 -2.98 8.34 -4 8 C-4.6875 5.9375 -4.6875 5.9375 -5 4 C-3.68 4.33 -2.36 4.66 -1 5 C-0.67 3.35 -0.34 1.7 0 0 Z " fill="#D9262B" transform="translate(399,565)"/>
<path d="M0 0 C0.99 0 1.98 0 3 0 C2.375 2.4375 2.375 2.4375 1 5 C-2.125 5.8125 -2.125 5.8125 -5 6 C-4.67 5.01 -4.34 4.02 -4 3 C-3.34 3.33 -2.68 3.66 -2 4 C-2 3.34 -2 2.68 -2 2 C-1.34 2 -0.68 2 0 2 C0 1.34 0 0.68 0 0 Z " fill="#E1525B" transform="translate(652,469)"/>
<path d="M0 0 C6.875 3.75 6.875 3.75 8 6 C5.125 6.1875 5.125 6.1875 2 6 C0 3 0 3 0 0 Z " fill="#CF2C34" transform="translate(602,177)"/>
<path d="M0 0 C1.39195915 4.17587745 -0.17676781 6.13474776 -2 10 C-3.10348268 6.68955197 -2.99444068 4.34493684 -2 1 C-1.34 0.67 -0.68 0.34 0 0 Z " fill="#E1525C" transform="translate(567,597)"/>
<path d="M0 0 C0 4.01474237 -1.66781767 5.81975137 -4 9 C-4.33 9 -4.66 9 -5 9 C-5.20086443 5.28400809 -5.1519437 4.22791555 -3 1 C-2.01 0.67 -1.02 0.34 0 0 Z " fill="#DF797F" transform="translate(598,552)"/>
<path d="M0 0 C0.66 0 1.32 0 2 0 C5.20614467 3.40652872 6.74809374 6.51400257 8 11 C7.34 11 6.68 11 6 11 C5.731875 10.195625 5.46375 9.39125 5.1875 8.5625 C4.795625 7.716875 4.40375 6.87125 4 6 C3.01 5.67 2.02 5.34 1 5 C0.67 3.35 0.34 1.7 0 0 Z " fill="#D3303B" transform="translate(378,545)"/>
<path d="M0 0 C-6.14285714 5.57142857 -6.14285714 5.57142857 -11 6 C-8.34806708 2.26764996 -4.95872866 -2.47936433 0 0 Z " fill="#D72830" transform="translate(371,185)"/>
<path d="M0 0 C1.32 0 2.64 0 4 0 C4.33 1.32 4.66 2.64 5 4 C5.66 4 6.32 4 7 4 C7 4.99 7 5.98 7 7 C6.01 7 5.02 7 4 7 C4 6.01 4 5.02 4 4 C3.34 4 2.68 4 2 4 C2 3.34 2 2.68 2 2 C1.34 2 0.68 2 0 2 C0 1.34 0 0.68 0 0 Z " fill="#DA2630" transform="translate(352,507)"/>
<path d="M0 0 C1.41441874 2.82883747 1.31900332 4.87376745 1 8 C-1 9.875 -1 9.875 -3 11 C-2.25 3.375 -2.25 3.375 0 0 Z " fill="#790F0F" transform="translate(410,309)"/>
<path d="M0 0 C1.60080151 4.00200378 0.29279692 7.04556236 -1 11 C-1.66 11 -2.32 11 -3 11 C-2.25 3.375 -2.25 3.375 0 0 Z " fill="#CF565B" transform="translate(308,252)"/>
<path d="M0 0 C2.79872437 2.52788007 4.45773019 4.20411134 5 8 C3.02 7.01 1.04 6.02 -1 5 C-0.67 3.35 -0.34 1.7 0 0 Z " fill="#E16B75" transform="translate(661,235)"/>
<path d="M0 0 C1.17539996 0.92652701 2.34010577 1.86663387 3.5 2.8125 C4.1496875 3.33457031 4.799375 3.85664063 5.46875 4.39453125 C7 6 7 6 7 9 C6.34 8.34 5.68 7.68 5 7 C2.93125966 6.3574765 2.93125966 6.3574765 1 6 C0.67 4.02 0.34 2.04 0 0 Z " fill="#E1797F" transform="translate(638,206)"/>
<path d="M0 0 C0.33 0.99 0.66 1.98 1 3 C3.00016466 4.20882096 3.00016466 4.20882096 5 5 C3.02 5.66 1.04 6.32 -1 7 C-1.33 6.34 -1.66 5.68 -2 5 C-1.67 4.34 -1.34 3.68 -1 3 C-1.66 2.67 -2.32 2.34 -3 2 C-2.01 1.34 -1.02 0.68 0 0 Z " fill="#37434F" transform="translate(627,793)"/>
<path d="M0 0 C0.99 0 1.98 0 3 0 C3.55827609 1.26362492 4.09612097 2.5362919 4.625 3.8125 C4.92664063 4.52019531 5.22828125 5.22789062 5.5390625 5.95703125 C5.69117188 6.63121094 5.84328125 7.30539062 6 8 C5.01 9.485 5.01 9.485 4 11 C3.32880451 9.5437455 2.66318193 8.08492133 2 6.625 C1.62875 5.81289063 1.2575 5.00078125 0.875 4.1640625 C0 2 0 2 0 0 Z " fill="#DD7273" transform="translate(443,658)"/>
<path d="M0 0 C0.66 0.33 1.32 0.66 2 1 C0.515 4.465 0.515 4.465 -1 8 C-1.66 8 -2.32 8 -3 8 C-3.36923077 3.44615385 -3.36923077 3.44615385 -1.5 1.1875 C-1.005 0.795625 -0.51 0.40375 0 0 Z " fill="#D45A61" transform="translate(556,616)"/>
<path d="M0 0 C2.52588702 2.36292656 3.88820837 3.66462511 5 7 C4.34 7.66 3.68 8.32 3 9 C0.9375 6.1875 0.9375 6.1875 -1 3 C-0.67 2.01 -0.34 1.02 0 0 Z " fill="#E46C70" transform="translate(421,613)"/>
<path d="M0 0 C1.60372657 4.00931642 0.38691773 7.05823382 -1 11 C-1.66 11.66 -2.32 12.32 -3 13 C-2.45144652 8.428721 -1.58255197 4.32564205 0 0 Z " fill="#E49090" transform="translate(296,279)"/>
<path d="M0 0 C0.66 0.99 1.32 1.98 2 3 C2.66 3 3.32 3 4 3 C2.86695008 6.39914975 1.87481525 7.05254451 -1 9 C-0.67 6.03 -0.34 3.06 0 0 Z " fill="#E05658" transform="translate(298,273)"/>
<path d="M0 0 C0 4.07746885 -1.52068051 5.83198065 -4 9 C-6.140625 9.6796875 -6.140625 9.6796875 -8 10 C-7.04367001 8.70684939 -6.08486149 7.41553147 -5.125 6.125 C-4.59132813 5.40570313 -4.05765625 4.68640625 -3.5078125 3.9453125 C-2 2 -2 2 0 0 Z " fill="#C53138" transform="translate(345,203)"/>
<path d="M0 0 C-0.33 1.32 -0.66 2.64 -1 4 C-2.65 4.33 -4.3 4.66 -6 5 C-6 4.01 -6 3.02 -6 2 C-3 0 -3 0 0 0 Z " fill="#F51F31" transform="translate(379,179)"/>
<path d="M0 0 C4.95 0.99 4.95 0.99 10 2 C9.67 2.99 9.34 3.98 9 5 C4.89198233 3.81323934 3.10551666 3.10551666 0 0 Z " fill="#868A8E" transform="translate(365,810)"/>
<path d="M0 0 C0.99 0 1.98 0 3 0 C3 0.66 3 1.32 3 2 C4.32 1.67 5.64 1.34 7 1 C7.33 1.66 7.66 2.32 8 3 C7 4 6 5 5 6 C3.31237149 4.3545622 1.6459651 2.68711423 0 1 C0 0.67 0 0.34 0 0 Z " fill="#646E76" transform="translate(335,786)"/>
<path d="M0 0 C1.46726798 3.81489674 0.43336419 6.29011622 -1 10 C-1.66 10 -2.32 10 -3 10 C-3 8.02 -3 6.04 -3 4 C-2.34 3.67 -1.68 3.34 -1 3 C-0.67 2.01 -0.34 1.02 0 0 Z " fill="#DE7A79" transform="translate(516,710)"/>
<path d="M0 0 C1.32 0 2.64 0 4 0 C4 0.66 4 1.32 4 2 C4.66 2.33 5.32 2.66 6 3 C5.34 4.65 4.68 6.3 4 8 C2.66666667 5.33333333 1.33333333 2.66666667 0 0 Z " fill="#DE2521" transform="translate(554,608)"/>
<path d="M0 0 C0.66 0 1.32 0 2 0 C2.1875 3.3125 2.1875 3.3125 2 7 C1.01 7.99 0.02 8.98 -1 10 C-0.67 6.7 -0.34 3.4 0 0 Z " fill="#DA5C5F" transform="translate(656,459)"/>
<path d="M0 0 C0.99 0 1.98 0 3 0 C3 1.98 3 3.96 3 6 C1.68 5.34 0.36 4.68 -1 4 C-0.67 2.68 -0.34 1.36 0 0 Z " fill="#F81828" transform="translate(565,292)"/>
<path d="M0 0 C2.12508244 3.18762365 2.5020163 5.26512223 3 9 C1.68 8.67 0.36 8.34 -1 8 C-0.67 5.36 -0.34 2.72 0 0 Z " fill="#D2282E" transform="translate(681,277)"/>
<path d="M0 0 C0 0.66 0 1.32 0 2 C-3.3 2.33 -6.6 2.66 -10 3 C-8.0130571 -0.97388579 -3.91761109 -0.08705802 0 0 Z " fill="#E2252B" transform="translate(454,264)"/>
<path d="M0 0 C0.625 1.8125 0.625 1.8125 1 4 C-1 7 -1 7 -3.125 7.6875 C-3.74375 7.790625 -4.3625 7.89375 -5 8 C-3.62845496 5.04590299 -2.01136276 2.55991624 0 0 Z " fill="#DE7479" transform="translate(328,221)"/>
<path d="M0 0 C-0.66 1.65 -1.32 3.3 -2 5 C-3.98 5 -5.96 5 -8 5 C-3.16129032 0 -3.16129032 0 0 0 Z " fill="#E47278" transform="translate(389,169)"/>
<path d="M0 0 C0.66 0.66 1.32 1.32 2 2 C1.8125 4 1.8125 4 1 6 C0.01 6.66 -0.98 7.32 -2 8 C-2.20086443 4.28400809 -2.1519437 3.22791555 0 0 Z " fill="#6C7179" transform="translate(640,786)"/>
<path d="M0 0 C1 2 1 2 1 5 C0 7 0 7 -2 8 C-2.66 6.02 -3.32 4.04 -4 2 C-2.68 1.34 -1.36 0.68 0 0 Z " fill="#686D75" transform="translate(332,772)"/>
<path d="M0 0 C0.66 0 1.32 0 2 0 C2.33 0.99 2.66 1.98 3 3 C3.99 3.33 4.98 3.66 6 4 C6 4.66 6 5.32 6 6 C3.03 5.505 3.03 5.505 0 5 C0 3.35 0 1.7 0 0 Z " fill="#F61B24" transform="translate(496,738)"/>
<path d="M0 0 C-0.33 0.66 -0.66 1.32 -1 2 C-1.99 2.33 -2.98 2.66 -4 3 C-4.99 3.495 -4.99 3.495 -6 4 C-6.99 3.34 -7.98 2.68 -9 2 C-5.96271914 -1.03728086 -4.06215635 -1.35405212 0 0 Z " fill="#565B63" transform="translate(359,714)"/>
<path d="M0 0 C2.97 0.495 2.97 0.495 6 1 C5.67 2.32 5.34 3.64 5 5 C4.34 5 3.68 5 3 5 C3 4.34 3 3.68 3 3 C2.01 2.67 1.02 2.34 0 2 C0 1.34 0 0.68 0 0 Z " fill="#4D545C" transform="translate(391,697)"/>
<path d="M0 0 C1.65 0 3.3 0 5 0 C5 1.32 5 2.64 5 4 C3.0625 3.6875 3.0625 3.6875 1 3 C0.67 2.01 0.34 1.02 0 0 Z " fill="#4D535D" transform="translate(560,688)"/>
<path d="M0 0 C0.66 0 1.32 0 2 0 C2.99 3.3 3.98 6.6 5 10 C4.01 10 3.02 10 2 10 C1.855625 8.906875 1.71125 7.81375 1.5625 6.6875 C1.11711896 3.06877013 1.11711896 3.06877013 0 0 Z " fill="#DB3439" transform="translate(417,603)"/>
<path d="M0 0 C0.33 0.66 0.66 1.32 1 2 C-0.65 4.31 -2.3 6.62 -4 9 C-5 5 -5 5 -4 3 C-3.01 3 -2.02 3 -1 3 C-0.67 2.01 -0.34 1.02 0 0 Z " fill="#E3898A" transform="translate(588,567)"/>
<path d="M0 0 C0.33 0 0.66 0 1 0 C0.67 3.63 0.34 7.26 0 11 C-2 9 -2 9 -2.125 5.875 C-2.08375 4.92625 -2.0425 3.9775 -2 3 C-1.34 3 -0.68 3 0 3 C0 2.01 0 1.02 0 0 Z " fill="#D12F38" transform="translate(689,381)"/>
<path d="M0 0 C0.66 0.33 1.32 0.66 2 1 C2 2.65 2 4.3 2 6 C0.68 6 -0.64 6 -2 6 C-1.125 1.125 -1.125 1.125 0 0 Z " fill="#F91B28" transform="translate(300,278)"/>
<path d="M0 0 C0.66 0 1.32 0 2 0 C2.66 1.98 3.32 3.96 4 6 C0.125 5.125 0.125 5.125 -1 4 C-1.99 4.495 -1.99 4.495 -3 5 C-1.125 1.125 -1.125 1.125 0 0 Z " fill="#D6242A" transform="translate(332,218)"/>
<path d="M0 0 C0.66 0.33 1.32 0.66 2 1 C1 4 1 4 -2 6 C-4.1875 5.625 -4.1875 5.625 -6 5 C-4.02 3.35 -2.04 1.7 0 0 Z " fill="#E1797C" transform="translate(370,180)"/>
<path d="M0 0 C1.11375 0.3403125 1.11375 0.3403125 2.25 0.6875 C2.25 1.6775 2.25 2.6675 2.25 3.6875 C-0.72 3.3575 -3.69 3.0275 -6.75 2.6875 C-4.29511132 0.41445492 -3.41240272 -0.38777304 0 0 Z " fill="#7C8188" transform="translate(430.75,829.3125)"/>
<path d="M0 0 C2.64 0.33 5.28 0.66 8 1 C5.4345406 3.5654594 3.52313332 3.54046087 0 4 C0 2.68 0 1.36 0 0 Z " fill="#6D747B" transform="translate(588,818)"/>
<path d="M0 0 C1.98 0.99 1.98 0.99 4 2 C4 4.64 4 7.28 4 10 C2.26337666 6.77484237 1.1094072 3.48670834 0 0 Z " fill="#959BA2" transform="translate(607,722)"/>
<path d="M0 0 C0.66 0 1.32 0 2 0 C3.60725635 3.21451269 3.05748185 6.43612536 3 10 C0.70366176 6.55549263 0.45983515 4.06187717 0 0 Z " fill="#E5888F" transform="translate(462,707)"/>
<path d="M0 0 C0.66 0.33 1.32 0.66 2 1 C0.875 2.5 0.875 2.5 -1 4 C-4.1875 4.1875 -4.1875 4.1875 -7 4 C-4.61426621 2.10786631 -2.92824652 0.97608217 0 0 Z " fill="#90959A" transform="translate(377,700)"/>
<path d="M0 0 C0.99 0.33 1.98 0.66 3 1 C1.25 6.75 1.25 6.75 -1 9 C-1.33 7.35 -1.66 5.7 -2 4 C-1.01 4 -0.02 4 1 4 C0.67 2.68 0.34 1.36 0 0 Z " fill="#E88487" transform="translate(546,633)"/>
<path d="M0 0 C1.32 0.33 2.64 0.66 4 1 C3.67 2.98 3.34 4.96 3 7 C2.34 7 1.68 7 1 7 C0.67 4.69 0.34 2.38 0 0 Z " fill="#F31C20" transform="translate(389,552)"/>
<path d="M0 0 C1.32 0.66 2.64 1.32 4 2 C2.02 4.97 2.02 4.97 0 8 C-1.43088528 5.13822943 -0.59991697 3.06624227 0 0 Z " fill="#DF757C" transform="translate(617,519)"/>
<path d="M0 0 C0.99 0 1.98 0 3 0 C4.5625 2.8125 4.5625 2.8125 6 6 C5.67 6.99 5.34 7.98 5 9 C4.16094435 7.87926138 3.32892169 6.75325453 2.5 5.625 C2.0359375 4.99851562 1.571875 4.37203125 1.09375 3.7265625 C0 2 0 2 0 0 Z " fill="#7D090C" transform="translate(410,384)"/>
<path d="M0 0 C3 1 3 1 6 3 C3.36 3.33 0.72 3.66 -2 4 C-2 3.01 -2 2.02 -2 1 C-1.34 0.67 -0.68 0.34 0 0 Z " fill="#767B84" transform="translate(554,828)"/>
<path d="M0 0 C2.97 1.98 2.97 1.98 6 4 C4 4.66666667 2 5.33333333 0 6 C0 4 0 2 0 0 Z " fill="#737985" transform="translate(386,768)"/>
<path d="M0 0 C1.2077558 3.62326739 0.54311128 4.64146369 -1 8 C-1.66 7.34 -2.32 6.68 -3 6 C-2.75 3.4375 -2.75 3.4375 -2 1 C-1.34 0.67 -0.68 0.34 0 0 Z " fill="#75787E" transform="translate(653,768)"/>
<path d="M0 0 C1.98 1.65 3.96 3.3 6 5 C5.01 5.495 5.01 5.495 4 6 C1.375 4.5625 1.375 4.5625 -1 3 C-0.67 2.01 -0.34 1.02 0 0 Z " fill="#7B7F8C" transform="translate(377,760)"/>
<path d="M0 0 C0.33 0.99 0.66 1.98 1 3 C1.66 3 2.32 3 3 3 C2.67 4.32 2.34 5.64 2 7 C1.01 6.67 0.02 6.34 -1 6 C-0.67 4.02 -0.34 2.04 0 0 Z " fill="#E22432" transform="translate(505,734)"/>
<path d="M0 0 C2.64 0.33 5.28 0.66 8 1 C6.68 1.33 5.36 1.66 4 2 C4.33 2.99 4.66 3.98 5 5 C3.35 4.67 1.7 4.34 0 4 C0.66 3.34 1.32 2.68 2 2 C1.34 1.34 0.68 0.68 0 0 Z " fill="#9B9CA4" transform="translate(556,686)"/>
<path d="M0 0 C0.66 0.99 1.32 1.98 2 3 C0.68 4.32 -0.64 5.64 -2 7 C-2.6875 5.1875 -2.6875 5.1875 -3 3 C-1.5625 1.25 -1.5625 1.25 0 0 Z " fill="#D42B35" transform="translate(636,491)"/>
<path d="M0 0 C1.5625 1.6875 1.5625 1.6875 3 4 C2.6875 6.75 2.6875 6.75 2 9 C0.4375 7.3125 0.4375 7.3125 -1 5 C-0.6875 2.25 -0.6875 2.25 0 0 Z " fill="#DB7072" transform="translate(302,420)"/>
<path d="M0 0 C0.66 0.33 1.32 0.66 2 1 C1.01 3.31 0.02 5.62 -1 8 C-1.99 8 -2.98 8 -4 8 C-2.68 5.36 -1.36 2.72 0 0 Z " fill="#E1232E" transform="translate(568,388)"/>
<path d="M0 0 C0.66 0 1.32 0 2 0 C1.690625 0.598125 1.38125 1.19625 1.0625 1.8125 C-0.10209704 4.08956772 -0.10209704 4.08956772 -1 7 C-1.66 7 -2.32 7 -3 7 C-3.33 7.99 -3.66 8.98 -4 10 C-4 8.68 -4 7.36 -4 6 C-3.34 6 -2.68 6 -2 6 C-1.855625 5.195625 -1.71125 4.39125 -1.5625 3.5625 C-1 1 -1 1 0 0 Z " fill="#D62632" transform="translate(324,228)"/>
<path d="M0 0 C1.5 1.3125 1.5 1.3125 3 3 C3 3.99 3 4.98 3 6 C1.68 5.67 0.36 5.34 -1 5 C-0.67 3.35 -0.34 1.7 0 0 Z " fill="#F91C23" transform="translate(649,226)"/>
</svg>
